<svg width="64" height="64" viewBox="0 0 64 64" fill="none" xmlns="http://www.w3.org/2000/svg">
<g clip-path="url(#clip0_341_17172)">
<circle opacity="0.1" cx="32" cy="32" r="18" fill="#F55349"/>
<ellipse opacity="0.14" cx="32" cy="54.65" rx="25" ry="1.65" fill="#F55349"/>
<path d="M49.98 29.63C50.31 25.86 46.68 25.52 43.84 25.48C39.54 25.42 35.3 23.76 32.07 20.93C28.84 18.1 24.08 17.03 20.04 19.04C16.52 20.8 13 23.33 13 29.71C13 36.09 18.18 40.99 24.58 41.26C29.87 41.48 34.52 40.58 39.14 38.81C41.46 37.92 43.68 36.75 45.66 35.24C47.44 33.88 49.75 32.03 49.98 29.63Z" fill="#F55349"/>
<path d="M24.58 41.26C18.2 40.98 13 36.1 13 29.71V34.45C13 40.82 18.18 46 24.58 46C39.87 46 47.26 39.25 49.06 36.69C49.53 36.13 49.92 35.23 49.98 34.45V29.62C49.91 30.4 49.53 31.39 49.06 31.95C47.26 34.51 38.24 41.85 24.58 41.26Z" fill="#F55349"/>
<g style="mix-blend-mode:multiply" opacity="0.6">
<path d="M24.58 41.26C18.2 40.98 13 36.1 13 29.71V34.45C13 40.82 18.18 46 24.58 46C39.87 46 47.26 39.25 49.06 36.69C49.53 36.13 49.92 35.23 49.98 34.45V29.62C49.91 30.4 49.53 31.39 49.06 31.95C47.26 34.51 38.24 41.85 24.58 41.26Z" fill="#F55349"/>
</g>
<g style="mix-blend-mode:multiply" opacity="0.6">
<path d="M16.6201 27.32C16.6201 27.32 16.5701 27.4 16.5401 27.44C16.0201 28.26 15.8601 29.26 15.8801 30.24C15.9401 32.34 16.5801 34.56 18.5301 35.65C20.4101 36.7 25.1001 36.31 23.6301 33.11C23.3701 32.55 22.9401 32.08 22.4401 31.7C21.0701 30.64 20.6601 30.07 20.7301 28.29C20.8201 25.8 17.8601 25.57 16.6201 27.33V27.32Z" fill="#F55349"/>
</g>
<g style="mix-blend-mode:multiply" opacity="0.6">
<path d="M28.21 32.96C27.05 33.37 26.1 34.41 25.98 35.56C25.9 36.33 26.29 37.16 27.05 37.51C27.97 37.93 29.02 37.83 30.01 37.8C31.11 37.77 32.21 37.67 33.3 37.51C35.04 37.26 36.77 36.85 38.44 36.28C39.92 35.78 41.51 35.15 42.53 33.91C43.73 32.45 41.96 31.32 40.6 32.09C38.75 33.13 36.96 33.71 34.75 33.33C32.68 32.98 30.28 32.24 28.21 32.96Z" fill="#F55349"/>
</g>
<g style="mix-blend-mode:multiply" opacity="0.6">
<path d="M27.5799 23.03C26.2899 22.59 24.2399 21.93 23.1299 22.74C21.3099 24.07 23.5699 27.37 24.8199 28.3C25.6199 28.89 26.6299 29.13 27.6199 29.22C29.4499 29.38 31.9299 29.91 33.6299 28.95C35.2299 28.05 34.1899 26.44 33.0599 25.72C31.4499 24.68 29.7399 23.75 27.9199 23.13C27.8199 23.1 27.7099 23.06 27.5899 23.02L27.5799 23.03Z" fill="#F55349"/>
</g>
<g style="mix-blend-mode:multiply" opacity="0.6">
<path d="M37.6901 28.55C39.0501 27.94 40.9101 27.88 40.2001 29.22C39.4901 30.56 35.6801 29.45 37.6901 28.55Z" fill="#F55349"/>
</g>
</g>
<defs>
<clipPath id="clip0_341_17172">
<rect width="64" height="64" fill="white"/>
</clipPath>
</defs>
</svg>
