<svg width="64" height="64" viewBox="0 0 64 64" fill="none" xmlns="http://www.w3.org/2000/svg">
<g clip-path="url(#clip0_341_17147)">
<circle opacity="0.1" cx="32" cy="32" r="18" fill="#F55349"/>
<ellipse opacity="0.14" cx="32" cy="54.65" rx="25" ry="1.65" fill="#F55349"/>
<path d="M45.3847 47.208C45.4147 46.7978 45.7546 46.4476 46.1746 46.4176C46.8745 46.3675 47.5643 46.0774 48.1042 45.5371C49.2841 44.3564 49.2841 42.4354 48.1042 41.2448C47.1444 40.2842 45.7046 40.1041 44.5648 40.6945C44.0549 40.9646 43.425 40.8445 43.0251 40.4343L39.3657 36.7723C39.0957 37.2526 38.5558 37.5328 37.9659 37.4227C37.0661 37.2526 36.3162 38.033 36.3162 38.9435V38.9635C36.4162 39.5138 36.1562 40.0341 35.7163 40.3143L39.4257 44.0263C39.8256 44.4265 39.9656 45.0468 39.6956 45.5471C39.0058 46.8378 39.3157 48.5287 40.6355 49.4592C41.6253 50.1596 42.9951 50.1896 44.0049 49.5192C44.8648 48.9589 45.3247 48.0785 45.3947 47.188L45.3847 47.208Z" fill="#FFC34F"/>
<g style="mix-blend-mode:multiply" opacity="0.36">
<path d="M45.3943 47.198C45.4243 46.7877 45.7743 46.4376 46.1842 46.4075C46.8841 46.3575 47.574 46.0674 48.1139 45.5271C49.2937 44.3464 49.2937 42.4254 48.1139 41.2347C47.734 40.8545 47.294 40.6044 46.8241 40.4643C47.1241 41.4949 46.8741 42.6455 46.0542 43.466C45.2944 44.2264 44.2545 44.4865 43.2847 44.2864C43.4847 45.2569 43.2047 46.3075 42.4648 47.0579C41.655 47.8683 40.4952 48.1285 39.4653 47.8283C39.6053 48.2986 39.8553 48.7488 40.2352 49.119C41.415 50.2996 43.3347 50.2996 44.5145 49.119C45.0444 48.5787 45.3344 47.8883 45.3843 47.188L45.3943 47.198Z" fill="#FFC34F"/>
</g>
<path fill-rule="evenodd" clip-rule="evenodd" d="M37.7759 38.1131C38.3858 38.043 38.9857 38.3632 39.5756 38.1131C40.1155 37.8829 40.4854 37.3326 40.6454 36.7923C40.8454 36.082 40.7754 35.2615 40.5554 34.5611C39.6656 31.6596 36.936 30.0087 35.4563 27.4773C34.7264 26.2266 34.0065 25.026 33.5566 23.6352C33.1067 22.2445 32.7467 20.6736 32.0868 19.2929C31.027 17.0717 29.1073 15.2006 26.7377 14.5103C22.1085 13.1295 17.4093 14.5603 15.1397 18.9927C13 23.1449 13.8199 29.4083 18.0292 31.9797C18.5591 32.3099 19.139 32.5801 19.7089 32.8302C20.9687 33.3705 22.2885 33.7707 23.5982 34.2009C25.198 34.7412 26.3378 35.6117 27.4776 36.8224C28.4074 37.7929 29.0773 38.9835 30.1272 39.834C31.097 40.6244 32.2968 41.1347 33.5266 41.3748C34.4164 41.5549 35.4363 41.775 36.3261 41.4949C36.6361 41.3948 36.936 41.2047 37.096 40.9246C37.5359 40.1542 36.4461 38.2731 37.7859 38.1231L37.7759 38.1131Z" fill="#F55349"/>
<g style="mix-blend-mode:multiply" opacity="0.4">
<path fill-rule="evenodd" clip-rule="evenodd" d="M32.6867 37.8329C31.337 35.5517 27.7776 30.7791 22.4384 29.4284C17.2993 28.1277 15.8595 24.4357 15.6996 18.0422C15.4996 18.3424 15.3096 18.6525 15.1397 18.9927C13 23.145 13.8199 29.4083 18.0292 31.9797C18.5591 32.3099 19.139 32.5801 19.7089 32.8302C20.9687 33.3705 22.2885 33.7707 23.5982 34.2009C25.198 34.7412 26.3378 35.6117 27.4776 36.8224C28.4074 37.7929 29.0773 38.9835 30.1272 39.834C31.097 40.6244 32.2968 41.1347 33.5266 41.3748C34.3265 41.5349 35.2263 41.705 36.0462 41.5449C35.0163 40.6544 33.5166 39.2337 32.6967 37.8329H32.6867Z" fill="#F55349"/>
</g>
</g>
<defs>
<clipPath id="clip0_341_17147">
<rect width="64" height="64" fill="white"/>
</clipPath>
</defs>
</svg>
