<svg width="64" height="64" viewBox="0 0 64 64" fill="none" xmlns="http://www.w3.org/2000/svg">
<g clip-path="url(#clip0_341_17215)">
<circle opacity="0.1" cx="32" cy="32" r="18" fill="#F55349"/>
<ellipse opacity="0.14" cx="32" cy="54.65" rx="25" ry="1.65" fill="#F55349"/>
<path d="M41.1001 40.2369C40.6901 40.2369 40.3301 39.9518 40.2301 39.5344C40.1101 39.0458 40.4101 38.5674 40.8901 38.435C43.7701 37.7326 43.8401 36.0428 43.8401 36.0224C43.8401 35.5134 44.2401 35.1164 44.7401 35.1164C45.2401 35.1164 45.6401 35.5134 45.6401 36.0224C45.6401 36.1547 45.5901 39.1476 41.3201 40.1961C41.2401 40.2267 41.1701 40.2369 41.1001 40.2369Z" fill="#F55349"/>
<path d="M44.6998 24.7023C44.6698 24.1526 45.2598 23.8166 45.7098 24.122C46.6998 24.7939 48.1198 25.9646 48.8898 27.4508C50.1898 29.9755 49.9198 32.2252 48.8498 34.0677C48.1898 35.2181 46.5898 36.0426 44.7898 36.0426C40.6398 36.0426 39.1998 30.6371 39.8998 27.6239C39.9998 27.176 40.5398 27.0029 40.8998 27.2676L44.9898 30.291L44.6898 24.6921L44.6998 24.7023Z" fill="#F55349"/>
<path d="M49.0999 44.2477C48.8699 44.2477 48.6299 44.1561 48.4599 43.9728L47.8599 43.3519C46.8999 42.3441 45.4399 42.0183 44.1499 42.5375L42.2199 43.301C41.7599 43.4842 41.2399 43.2501 41.0599 42.7818C40.8799 42.3135 41.1099 41.7842 41.5699 41.6009L43.5099 40.8374C45.4799 40.0638 47.6899 40.5524 49.1499 42.0896L49.7499 42.7105C50.0999 43.077 50.0799 43.6471 49.7199 43.9932C49.5399 44.1663 49.3199 44.2375 49.0899 44.2375L49.0999 44.2477Z" fill="#F55349"/>
<path d="M16.0997 49.0933C15.6897 48.8184 15.5597 48.2687 15.8297 47.8412C16.9797 46.019 19.1497 45.0926 21.2497 45.5202L21.8397 45.6321C22.3297 45.7339 22.6497 46.2124 22.5397 46.7112C22.4297 47.21 21.9597 47.5256 21.4797 47.4238L20.8897 47.3118C19.5197 47.0268 18.0897 47.6376 17.3397 48.8286C17.1697 49.1035 16.8797 49.246 16.5897 49.246C16.4197 49.246 16.2597 49.2053 16.0997 49.1035V49.0933Z" fill="#F55349"/>
<path d="M18.9799 53.8778C18.5499 53.6335 18.3899 53.0838 18.6299 52.6461L18.8899 52.1778C19.8099 50.5185 21.5499 49.4801 23.4299 49.4801H24.1699C24.6699 49.4801 25.0699 49.8771 25.0699 50.3861C25.0699 50.8951 24.6699 51.2921 24.1699 51.2921H23.4299C22.1999 51.2921 21.0499 51.964 20.4499 53.0533L20.1899 53.5215C20.0199 53.8167 19.7199 53.9898 19.4099 53.9898C19.2699 53.9898 19.1199 53.9491 18.9799 53.8778Z" fill="#F55349"/>
<g style="mix-blend-mode:multiply" opacity="0.36">
<path d="M16.0997 49.0933C15.6897 48.8184 15.5597 48.2687 15.8297 47.8412C16.9797 46.019 19.1497 45.0926 21.2497 45.5202L21.8397 45.6321C22.3297 45.7339 22.6497 46.2124 22.5397 46.7112C22.4297 47.21 21.9597 47.5256 21.4797 47.4238L20.8897 47.3118C19.5197 47.0268 18.0897 47.6376 17.3397 48.8286C17.1697 49.1035 16.8797 49.246 16.5897 49.246C16.4197 49.246 16.2597 49.2053 16.0997 49.1035V49.0933Z" fill="#F55349"/>
</g>
<g style="mix-blend-mode:multiply" opacity="0.36">
<path d="M18.9799 53.8778C18.5499 53.6335 18.3899 53.0838 18.6299 52.6461L18.8899 52.1778C19.8099 50.5185 21.5499 49.4801 23.4299 49.4801H24.1699C24.6699 49.4801 25.0699 49.8771 25.0699 50.3861C25.0699 50.8951 24.6699 51.2921 24.1699 51.2921H23.4299C22.1999 51.2921 21.0499 51.964 20.4499 53.0533L20.1899 53.5215C20.0199 53.8167 19.7199 53.9898 19.4099 53.9898C19.2699 53.9898 19.1199 53.9491 18.9799 53.8778Z" fill="#F55349"/>
</g>
<path d="M42.4298 40.5422L40.5898 38.5877C38.8398 36.7248 36.4198 35.6763 33.8898 35.6763H30.2498C27.7198 35.6763 25.2898 36.7248 23.5498 38.5877L21.7098 40.5422C20.6498 41.6722 20.3198 43.3112 20.8398 44.7771C21.8798 47.6681 23.8998 52.076 26.6098 52.076H37.5598C40.2798 52.076 42.2998 47.6681 43.3298 44.7771C43.8398 43.3112 43.5098 41.6824 42.4498 40.5422H42.4298Z" fill="#F55349"/>
<g style="mix-blend-mode:multiply" opacity="0.36">
<path d="M37.5399 48.0855H26.5899C24.0699 48.0855 22.1499 44.2986 21.0699 41.438C20.5299 42.4459 20.4299 43.6674 20.8299 44.777C21.8699 47.6681 23.8899 52.076 26.5999 52.076H37.5499C40.2699 52.076 42.2899 47.6681 43.3199 44.777C43.7199 43.6674 43.6099 42.4459 43.0799 41.438C41.9899 44.2986 40.0699 48.0855 37.5599 48.0855H37.5399Z" fill="#F55349"/>
</g>
<path d="M46.78 48.8286C46.03 47.6376 44.59 47.0268 43.23 47.3118L42.64 47.4238C42.15 47.5154 41.67 47.1998 41.58 46.7112C41.49 46.2226 41.8 45.7441 42.28 45.6321L42.87 45.5202C44.95 45.0926 47.14 46.0292 48.29 47.8412C48.56 48.2687 48.44 48.8286 48.02 49.0933C47.87 49.1849 47.7 49.2358 47.53 49.2358C47.24 49.2358 46.94 49.0933 46.78 48.8184V48.8286Z" fill="#F55349"/>
<path d="M44.1398 53.5317L43.8798 53.0634C43.2798 51.9742 42.1298 51.3023 40.8998 51.3023H40.1598C39.6598 51.3023 39.2598 50.9053 39.2598 50.3963C39.2598 49.8873 39.6598 49.4903 40.1598 49.4903H40.8998C42.7798 49.4903 44.5198 50.5287 45.4398 52.188L45.6998 52.6563C45.9398 53.0838 45.7898 53.6437 45.3498 53.888C45.2098 53.9695 45.0698 54 44.9198 54C44.5998 54 44.2898 53.8269 44.1398 53.5317Z" fill="#F55349"/>
<path d="M22.8597 40.2368C22.7997 40.2368 22.7197 40.2267 22.6397 40.2063C18.3697 39.1578 18.2397 35.7984 18.2397 35.6763H20.0297L20.1097 36.0224C20.1097 36.0835 20.2297 37.7631 23.0597 38.4554C23.5497 38.5673 23.8397 39.0662 23.7197 39.5548C23.6197 39.9416 23.2497 40.2267 22.8497 40.2267L22.8597 40.2368Z" fill="#F55349"/>
<path d="M14.8999 44.2477C14.6799 44.2477 14.4499 44.1561 14.2699 43.9932C13.9099 43.6471 13.8999 43.077 14.2399 42.7105L14.8399 42.0896C16.3099 40.5524 18.5199 40.0536 20.4799 40.8374L22.4099 41.6009C22.8699 41.7842 23.0999 42.3135 22.9199 42.7818C22.7399 43.2501 22.2199 43.4842 21.7599 43.301L19.8299 42.5375C18.5399 42.0285 17.0799 42.3441 16.1199 43.3519L15.5199 43.9728C15.3499 44.1663 15.1199 44.2579 14.8899 44.2579L14.8999 44.2477Z" fill="#F55349"/>
<g style="mix-blend-mode:multiply" opacity="0.36">
<path d="M46.78 48.8286C46.03 47.6376 44.59 47.0268 43.23 47.3118L42.64 47.4238C42.15 47.5154 41.67 47.1998 41.58 46.7112C41.49 46.2226 41.8 45.7441 42.28 45.6321L42.87 45.5202C44.95 45.0926 47.14 46.0292 48.29 47.8412C48.56 48.2687 48.44 48.8286 48.02 49.0933C47.87 49.1849 47.7 49.2358 47.53 49.2358C47.24 49.2358 46.94 49.0933 46.78 48.8184V48.8286Z" fill="#F55349"/>
</g>
<g style="mix-blend-mode:multiply" opacity="0.36">
<path d="M44.1398 53.5317L43.8798 53.0634C43.2798 51.9742 42.1298 51.3023 40.8998 51.3023H40.1598C39.6598 51.3023 39.2598 50.9053 39.2598 50.3963C39.2598 49.8873 39.6598 49.4903 40.1598 49.4903H40.8998C42.7798 49.4903 44.5198 50.5287 45.4398 52.188L45.6998 52.6563C45.9398 53.0838 45.7898 53.6437 45.3498 53.888C45.2098 53.9695 45.0698 54 44.9198 54C44.5998 54 44.2898 53.8269 44.1398 53.5317Z" fill="#F55349"/>
</g>
<path d="M28.6701 34.4649C29.4201 34.4649 30.0301 33.905 30.0301 33.2229C30.0301 32.5409 29.4201 31.981 28.6701 31.981C27.9201 31.981 27.3101 32.5409 27.3101 33.2229C27.3101 33.905 27.9201 34.4649 28.6701 34.4649Z" fill="#F55349"/>
<path d="M35.4699 34.4649C36.2199 34.4649 36.8299 33.905 36.8299 33.2229C36.8299 32.5409 36.2199 31.981 35.4699 31.981C34.7199 31.981 34.1099 32.5409 34.1099 33.2229C34.1099 33.905 34.7199 34.4649 35.4699 34.4649Z" fill="#F55349"/>
<g style="mix-blend-mode:multiply" opacity="0.36">
<path d="M48.8498 34.0577C49.9098 32.2152 50.1898 29.9654 48.8898 27.4408C48.1198 25.9546 46.6998 24.7941 45.7098 24.112C45.2698 23.8066 44.6698 24.1527 44.6998 24.6923L44.9198 28.7438C46.8198 30.7391 47.2098 33.6403 46.7998 35.6661C47.7098 35.32 48.4498 34.7499 48.8498 34.0577Z" fill="#F55349"/>
</g>
<path d="M19.6797 24.6923C19.7097 24.1527 19.1197 23.8066 18.6697 24.112C17.6797 24.7839 16.2397 25.9546 15.4697 27.4408C14.1697 29.9654 14.4397 32.2152 15.5097 34.0577C16.1797 35.208 17.7797 36.0326 19.5897 36.0326C23.7597 36.0326 25.1997 30.6271 24.4997 27.6139C24.3997 27.166 23.8597 26.9929 23.4997 27.2576L19.3897 30.2912L19.6897 24.6923H19.6797Z" fill="#F55349"/>
<g style="mix-blend-mode:multiply" opacity="0.36">
<path d="M15.5199 34.0577C14.4499 32.2152 14.1799 29.9654 15.4799 27.4408C16.2499 25.9546 17.6799 24.7941 18.6799 24.112C19.1299 23.8066 19.7199 24.1527 19.6899 24.6923L19.4699 28.7438C17.5599 30.7391 17.1699 33.6403 17.5799 35.6661C16.6599 35.32 15.9199 34.7499 15.5199 34.0577Z" fill="#F55349"/>
</g>
</g>
<defs>
<clipPath id="clip0_341_17215">
<rect width="64" height="64" fill="white"/>
</clipPath>
</defs>
</svg>
