<svg width="64" height="64" viewBox="0 0 64 64" fill="none" xmlns="http://www.w3.org/2000/svg">
<g clip-path="url(#clip0_341_17643)">
<ellipse opacity="0.14" cx="32" cy="54.65" rx="25" ry="1.65" fill="#F55349"/>
<circle opacity="0.1" cx="32" cy="32" r="18" fill="#F55349"/>
<path d="M35.8784 17.6655C36.5465 17.6674 37.1992 17.8668 37.7542 18.2387C38.3093 18.6105 38.742 19.1383 38.9978 19.7555C39.2537 20.3727 39.3213 21.0518 39.1921 21.7073C39.063 22.3628 38.7428 22.9655 38.272 23.4395L17.5361 44.1754C17.2408 44.5376 16.8737 44.8348 16.458 45.0482C16.0422 45.2617 15.5868 45.3868 15.1204 45.4157C14.6539 45.4445 14.1866 45.3766 13.7477 45.2161C13.3088 45.0556 12.9078 44.806 12.5701 44.483C12.2323 44.16 11.9651 43.7706 11.7851 43.3393C11.6052 42.908 11.5164 42.4442 11.5244 41.9769C11.5324 41.5096 11.6371 41.0491 11.8317 40.6242C12.0264 40.1994 12.3069 39.8194 12.6555 39.5082L33.4914 18.6589C33.8031 18.3428 34.1748 18.092 34.5847 17.9214C34.9946 17.7508 35.4344 17.6638 35.8784 17.6655Z" fill="#F55349"/>
<g style="mix-blend-mode:multiply" opacity="0.36">
<path d="M34.9918 17.7855C35.3185 18.2188 35.3051 18.2455 37.8855 22.9128C37.9972 23.1139 38.0931 23.3234 38.1722 23.5395L17.5363 44.2087C17.0829 44.0287 17.5363 44.2487 12.369 41.4017C12.1646 41.2891 11.9685 41.1621 11.7822 41.0217C11.9358 40.4532 12.2372 39.9356 12.6557 39.5215L33.4916 18.6589C33.9045 18.2388 34.4226 17.9372 34.9918 17.7855Z" fill="#F55349"/>
</g>
<path d="M34.205 19.0123L36.752 23.5595C37.1654 24.3036 37.324 25.1626 37.2036 26.0053C37.0832 26.8479 36.6905 27.6281 36.0853 28.2267L22.2102 42.0618C21.611 42.666 20.8309 43.0581 19.9885 43.1784C19.1461 43.2988 18.2874 43.1408 17.543 42.7285L13.0157 40.2016C12.5205 39.9282 12.0907 39.5505 11.756 39.0945C11.4214 38.6385 11.1899 38.1152 11.0776 37.5609C10.9653 37.0065 10.975 36.4344 11.1059 35.8841C11.2367 35.3338 11.4857 34.8186 11.8356 34.3742C12.0556 34.0941 11.0888 35.0809 28.0309 18.1455C28.458 17.7175 28.9788 17.3946 29.5521 17.2023C30.1254 17.0101 30.7355 16.9538 31.3343 17.0379C31.9331 17.1219 32.5042 17.3441 33.0024 17.6867C33.5006 18.0294 33.9123 18.4832 34.205 19.0123Z" fill="#FFC34F"/>
<g style="mix-blend-mode:multiply" opacity="0.36">
<path d="M34.8651 21.706C35.2737 22.4474 35.4305 23.3015 35.3118 24.1397C35.2687 24.3956 35.1497 24.6326 34.9702 24.8199C34.7906 25.0073 34.5589 25.1363 34.3051 25.1902C34.0513 25.2441 33.7871 25.2205 33.5469 25.1223C33.3067 25.0241 33.1016 24.856 32.9582 24.6397C28.4443 17.9189 28.751 18.3056 28.331 17.8722C28.0109 18.1523 12.0623 34.0809 11.8356 34.3743C12.0287 34.5552 12.236 34.7202 12.4557 34.8677L18.5497 38.9615C18.7563 39.121 18.9116 39.3377 18.9962 39.5846C19.0808 39.8315 19.0911 40.0979 19.0258 40.3506C18.9605 40.6033 18.8225 40.8313 18.6288 41.0063C18.4351 41.1813 18.1944 41.2957 17.9363 41.3351C17.1635 41.4019 16.3883 41.2371 15.7094 40.8617L11.4155 38.4681C11.7633 39.2039 12.3352 39.8108 13.0491 40.2017L17.603 42.7153C18.3471 43.1287 19.206 43.2873 20.0487 43.1669C20.8914 43.0465 21.6716 42.6537 22.2702 42.0485L36.0852 28.2068C36.6904 27.6082 37.0832 26.828 37.2036 25.9854C37.324 25.1427 37.1654 24.2837 36.752 23.5396L34.2383 18.9924C33.8475 18.2785 33.2407 17.7066 32.5048 17.3588L34.8651 21.706Z" fill="#FFC34F"/>
</g>
<path d="M27.7242 19.239L33.7916 28.2668C34.244 28.9389 34.4489 29.7472 34.371 30.5536C34.2932 31.36 33.9375 32.1143 33.3649 32.6874L26.6507 39.4015C26.0785 39.9752 25.3246 40.3321 24.5182 40.4111C23.7118 40.4902 22.903 40.2865 22.2302 39.8349L13.2024 33.7608C12.4625 33.266 11.9398 32.507 11.7415 31.6392C11.5431 30.7715 11.6842 29.8607 12.1356 29.0936C12.429 28.5602 11.8556 29.2069 22.3502 18.7123C22.7153 18.3471 23.1568 18.0674 23.643 17.8933C24.1291 17.7192 24.6478 17.6551 25.1617 17.7054C25.6756 17.7558 26.172 17.9195 26.6151 18.1847C27.0582 18.4498 27.437 18.8099 27.7242 19.239Z" fill="#F55349"/>
<g style="mix-blend-mode:multiply" opacity="0.36">
<path d="M33.3649 32.6873L26.6508 39.4015C26.0785 39.9751 25.3246 40.332 24.5182 40.4111C23.7118 40.4901 22.903 40.2864 22.2302 39.8349L13.2024 33.7608C12.6978 33.4268 12.2888 32.9672 12.0156 32.4273L19.4165 37.3746C20.0893 37.8261 20.8981 38.0298 21.7045 37.9508C22.511 37.8717 23.2648 37.5148 23.8371 36.9412L30.5379 30.227C31.1022 29.6561 31.4528 28.9082 31.5305 28.1092C31.6082 27.3102 31.4084 26.5088 30.9646 25.8398L25.5706 17.8388C26.4523 18.0242 27.2257 18.5486 27.7242 19.299L33.7917 28.3268C34.2285 28.9933 34.4244 29.7891 34.3468 30.5822C34.2691 31.3754 33.9227 32.1181 33.3649 32.6873Z" fill="#F55349"/>
</g>
<path d="M27.0643 31.6073L25.5708 33.1008C24.9748 33.6962 24.1896 34.0647 23.3508 34.1426C22.512 34.2206 21.6723 34.003 20.9769 33.5275L12.9025 28.0135C12.4636 27.7148 12.096 27.3229 11.826 26.8657C11.556 26.4086 11.3902 25.8974 11.3405 25.3688C11.2909 24.8402 11.3585 24.3072 11.5386 23.8077C11.7187 23.3083 12.0068 22.8547 12.3825 22.4795L16.443 18.419C16.8193 18.0456 17.2731 17.7594 17.7723 17.5806C18.2714 17.4019 18.8038 17.3349 19.3316 17.3845C19.8595 17.4341 20.37 17.5991 20.8271 17.8677C21.2842 18.1363 21.6768 18.502 21.977 18.939L27.491 27.0134C27.9665 27.7088 28.1841 28.5485 28.1061 29.3873C28.0282 30.2261 27.6597 31.0113 27.0643 31.6073Z" fill="#FFC34F"/>
<g style="mix-blend-mode:multiply" opacity="0.36">
<path d="M25.5708 33.1008L27.0643 31.6073C27.6597 31.0113 28.0282 30.2261 28.1061 29.3873C28.1841 28.5485 27.9665 27.7088 27.491 27.0134L21.977 18.939C21.6768 18.502 21.2842 18.1363 20.8271 17.8677C20.37 17.5991 19.8595 17.4341 19.3316 17.3845C18.8038 17.3349 18.2714 17.4019 17.7723 17.5806C17.2731 17.7594 16.8193 18.0456 16.443 18.419L12.3825 22.4795C12.0068 22.8547 11.7187 23.3083 11.5386 23.8077C11.3585 24.3072 11.2909 24.8402 11.3405 25.3688C11.3555 25.5283 11.3811 25.6863 11.4169 25.8416C11.2999 25.3217 11.2993 24.7806 11.4176 24.2573C11.5674 23.5942 11.9019 22.9871 12.3825 22.5061L16.443 18.4456C16.857 18.0219 17.3701 17.708 17.9358 17.5323C18.5015 17.3565 19.1021 17.3244 19.6834 17.4388L24.0839 23.8396C24.5504 24.538 24.7596 25.3768 24.6757 26.2125C24.5917 27.0481 24.2199 27.8286 23.6238 28.4202L22.1237 29.9137C21.5288 30.5086 20.7447 30.8769 19.907 30.9548C19.0694 31.0327 18.2308 30.8154 17.5364 30.3404L11.5387 26.2553C11.615 26.4667 11.711 26.6711 11.826 26.8657C12.096 27.3229 12.4636 27.7148 12.9025 28.0135L20.9769 33.5275C21.6723 34.003 22.512 34.2206 23.3508 34.1426C24.1896 34.0647 24.9748 33.6962 25.5708 33.1008Z" fill="#FFC34F"/>
</g>
<path d="M40.8391 51.3981C40.3591 51.6589 39.8129 51.7725 39.2687 51.7248C38.7245 51.6771 38.2064 51.4702 37.7791 51.1298C37.3518 50.7895 37.0342 50.3308 36.8659 49.811C36.6977 49.2913 36.6863 48.7335 36.8332 48.2073L43.5099 25.0768C43.5784 24.6993 43.7244 24.3401 43.9385 24.0217C44.1526 23.7034 44.4303 23.4328 44.7541 23.2269C45.0779 23.0211 45.4408 22.8845 45.8199 22.8258C46.199 22.767 46.5862 22.7873 46.9571 22.8855C47.328 22.9836 47.6746 23.1574 47.975 23.396C48.2755 23.6346 48.5233 23.9328 48.703 24.2718C48.8826 24.6108 48.9901 24.9834 49.0187 25.3659C49.0474 25.7485 48.9966 26.1329 48.8695 26.4949L42.1605 49.737C42.0603 50.0872 41.892 50.4141 41.6653 50.6991C41.4385 50.9842 41.1578 51.2217 40.8391 51.3981Z" fill="#F55349"/>
<g style="mix-blend-mode:multiply" opacity="0.36">
<path d="M41.4287 50.96C41.022 50.7781 41.021 50.7537 37.3147 48.4229C37.1546 48.3227 37.0026 48.2101 36.86 48.0862L43.5045 25.0672C43.9018 25.0167 43.486 25.0337 48.3321 25.0346C48.5236 25.0344 48.715 25.0479 48.9046 25.075C49.0197 25.5444 49.0085 26.036 48.872 26.4997L42.1604 49.737C42.0303 50.2028 41.7776 50.6251 41.4287 50.96Z" fill="#F55349"/>
</g>
<path d="M41.5077 49.7661L37.897 47.4951C37.3046 47.1243 36.8498 46.5698 36.602 45.9164C36.3542 45.263 36.327 44.5464 36.5245 43.876C36.967 42.4125 40.6035 29.7449 40.9808 28.4236C41.1718 27.7516 41.5769 27.1603 42.1346 26.7396C42.6923 26.3189 43.3722 26.0917 44.0708 26.0927L48.3363 26.0952C48.8007 26.0952 49.2595 26.1962 49.6809 26.3911C50.1024 26.5861 50.4764 26.8704 50.777 27.2243C51.0777 27.5782 51.2977 27.9932 51.422 28.4406C51.5462 28.888 51.5717 29.3571 51.4966 29.8154C51.4543 30.1013 51.7529 29.0111 46.2951 47.905C46.1613 48.3852 45.9174 48.8277 45.5828 49.1973C45.2481 49.5669 44.832 49.8533 44.3673 50.034C43.9026 50.2146 43.4022 50.2845 42.9058 50.238C42.4094 50.1915 41.9307 50.0299 41.5077 49.7661Z" fill="#FFC34F"/>
<g style="mix-blend-mode:multiply" opacity="0.36">
<path d="M39.9643 48.0919C39.3752 47.7197 38.9228 47.1664 38.675 46.5152C38.6054 46.3141 38.5978 46.0968 38.6531 45.8914C38.7085 45.6859 38.8242 45.5018 38.9854 45.363C39.1467 45.2241 39.3459 45.1369 39.5572 45.1126C39.7686 45.0883 39.9824 45.1281 40.1709 45.2268C46.079 48.2616 45.7222 48.1022 46.1817 48.255C46.3054 47.9241 51.4385 30.1411 51.4904 29.8499C51.2798 29.7965 51.0653 29.7601 50.8489 29.7413L44.842 29.2119C44.6316 29.1779 44.4356 29.0833 44.2782 28.9396C44.1208 28.7959 44.0088 28.6093 43.9559 28.4028C43.903 28.1963 43.9115 27.9789 43.9804 27.7772C44.0493 27.5755 44.1756 27.3983 44.3438 27.2673C44.8716 26.9102 45.495 26.7209 46.1322 26.724L50.192 26.7276C49.6501 26.3367 48.9983 26.1274 48.3301 26.1297L44.062 26.1224C43.3631 26.1205 42.6828 26.3473 42.1249 26.7682C41.567 27.189 41.1621 27.7809 40.972 28.4533L36.5273 43.893C36.3299 44.5634 36.3571 45.2799 36.6049 45.9334C36.8527 46.5868 37.3075 47.1412 37.8998 47.5121L41.5106 49.783C42.0747 50.1411 42.7378 50.3113 43.4046 50.2693L39.9643 48.0919Z" fill="#FFC34F"/>
</g>
<path d="M46.192 46.6242L38.2638 42.5349C37.672 42.2314 37.204 41.7316 36.94 41.1212C36.6761 40.5107 36.6324 39.8275 36.8166 39.1884L38.9535 31.6876C39.1373 31.0483 39.5375 30.4927 40.0857 30.1159C40.6339 29.7391 41.2961 29.5646 41.9588 29.6223L50.8678 30.4254C51.596 30.4875 52.2728 30.8256 52.7596 31.3706C53.2464 31.9156 53.5064 32.6261 53.4863 33.3566C53.4871 33.8564 53.6426 33.1641 50.2635 44.8706C50.1451 45.2774 49.9382 45.6529 49.6577 45.9704C49.3772 46.2878 49.03 46.5393 48.641 46.7069C48.2519 46.8744 47.8306 46.9539 47.4072 46.9396C46.9838 46.9253 46.5689 46.8176 46.192 46.6242Z" fill="#F55349"/>
<path d="M41.6428 37.8806L42.1285 36.2119C42.32 35.5485 42.7369 34.9726 43.3073 34.5835C43.8778 34.1945 44.5661 34.0165 45.2536 34.0805L53.252 34.8422C53.6859 34.8834 54.1053 35.0197 54.4804 35.2416C54.8555 35.4635 55.177 35.7654 55.422 36.1259C55.667 36.4864 55.8293 36.8964 55.8976 37.3269C55.9658 37.7573 55.9381 38.1975 55.8166 38.6161L54.514 43.1428C54.3924 43.5611 54.1803 43.9475 53.8926 44.2746C53.605 44.6016 53.2488 44.8613 52.8494 45.0352C52.4501 45.2091 52.0173 45.2929 51.5819 45.2807C51.1465 45.2685 50.7191 45.1606 50.3301 44.9646L43.1561 41.3469C42.5392 41.0362 42.0503 40.5197 41.774 39.8868C41.4977 39.2538 41.4513 38.5441 41.6428 37.8806Z" fill="#FFC34F"/>
</g>
<defs>
<clipPath id="clip0_341_17643">
<rect width="64" height="64" fill="white"/>
</clipPath>
</defs>
</svg>
