<svg width="21" height="20" viewBox="0 0 21 20" fill="none" xmlns="http://www.w3.org/2000/svg">
<g clip-path="url(#clip0_985_17391)">
<ellipse opacity="0.14" cx="10.5" cy="17.0781" rx="7.8125" ry="0.515625" fill="#F55349"/>
<circle opacity="0.1" cx="10.5" cy="10" r="5.625" fill="#F55349"/>
<path d="M13.613 5.55183C13.5798 5.2899 13.4623 5.0459 13.278 4.85677C13.0938 4.66763 12.853 4.54366 12.592 4.5036C12.3311 4.46355 12.0642 4.50959 11.8317 4.63477C11.5993 4.75995 11.4139 4.95745 11.3037 5.19738C11.2565 5.30217 11.1709 5.38481 11.0645 5.42822C10.9581 5.47162 10.8391 5.47246 10.7321 5.43057C10.5408 5.35094 10.3323 5.32156 10.1265 5.3452C9.92062 5.36885 9.72424 5.44473 9.55598 5.56565C9.38772 5.68657 9.25317 5.8485 9.16512 6.03607C9.07708 6.22363 9.03845 6.43059 9.05292 6.63729C9.05315 6.6415 9.0535 6.64569 9.05385 6.64986C9.05391 6.65056 9.05397 6.65127 9.05402 6.65197C9.05408 6.65263 9.05413 6.6533 9.05419 6.65396C9.05875 6.71338 9.05124 6.77312 9.0321 6.82956C9.01296 6.88601 8.9826 6.93799 8.94283 6.98238C8.90306 7.02678 8.85471 7.06266 8.80071 7.08786C8.7467 7.11307 8.68815 7.12708 8.62858 7.12905C8.61684 7.12935 8.60504 7.12982 8.59325 7.13047C8.40957 7.1407 8.23061 7.19249 8.06986 7.28192C7.9091 7.37136 7.77074 7.49611 7.66519 7.64678C7.55965 7.79745 7.48968 7.97011 7.46055 8.15175C7.43142 8.33339 7.44389 8.51927 7.49703 8.69539C7.51901 8.77103 7.53938 8.83821 7.558 8.89956C7.59828 9.03234 7.63029 9.13784 7.65231 9.24293C7.69817 9.46174 7.73543 9.68836 7.86574 9.87002C8.08844 10.1805 8.39282 10.4559 8.77976 10.6601C8.96129 10.7559 9.17034 10.7744 9.37391 10.8007C9.47035 10.8131 9.56674 10.833 9.67803 10.856C9.76481 10.8739 9.86066 10.8937 9.97264 10.9132C10.1535 10.9468 10.3397 10.9388 10.5171 10.89C10.6944 10.8412 10.8584 10.7527 10.9966 10.6313C11.1348 10.5099 11.2437 10.3586 11.315 10.189C11.3863 10.0194 11.4182 9.83588 11.4082 9.65217C11.4075 9.64037 11.4067 9.62862 11.4057 9.61693C11.4011 9.55751 11.4086 9.49777 11.4278 9.44132C11.4469 9.38487 11.4773 9.33288 11.517 9.28848C11.5568 9.24409 11.6051 9.20821 11.6592 9.18301C11.7132 9.15781 11.7717 9.14382 11.8313 9.14188C11.8335 9.14176 11.8357 9.14168 11.8378 9.14162C11.8388 9.14159 11.8398 9.14156 11.8408 9.14154C11.8432 9.14148 11.8456 9.14141 11.8479 9.14131C12.055 9.13306 12.2565 9.07199 12.4333 8.96393C12.6101 8.85586 12.7563 8.70438 12.8581 8.52388C12.9598 8.34339 13.0138 8.13987 13.0147 7.93266C13.0157 7.72545 12.9636 7.52144 12.8635 7.34002C12.8102 7.23825 12.798 7.11987 12.8295 7.00937C12.8609 6.89886 12.9337 6.80469 13.0327 6.74633C13.2349 6.62505 13.3975 6.44752 13.5005 6.23541C13.6036 6.0233 13.6427 5.78578 13.613 5.55183Z" fill="#6BB229"/>
<g style="mix-blend-mode:multiply" opacity="0.56">
<path d="M13.613 5.55183C13.5798 5.2899 13.4623 5.0459 13.278 4.85677C13.0938 4.66763 12.853 4.54366 12.592 4.5036C12.3311 4.46355 12.0642 4.50959 11.8317 4.63477C11.5993 4.75995 11.4139 4.95745 11.3037 5.19738C11.2565 5.30217 11.1709 5.38481 11.0645 5.42822C10.9581 5.47162 10.8391 5.47246 10.7321 5.43057C10.5408 5.35094 10.3323 5.32156 10.1265 5.3452C9.92062 5.36885 9.72424 5.44473 9.55598 5.56565C9.38772 5.68657 9.25317 5.8485 9.16512 6.03607C9.07708 6.22363 9.03845 6.43059 9.05292 6.63729C9.05315 6.6415 9.0535 6.64569 9.05385 6.64986C9.05391 6.65056 9.05397 6.65127 9.05402 6.65197C9.05408 6.65263 9.05413 6.6533 9.05419 6.65396C9.05875 6.71338 9.05124 6.77312 9.0321 6.82956C9.01296 6.88601 8.9826 6.93799 8.94283 6.98238C8.90306 7.02678 8.85471 7.06266 8.80071 7.08786C8.7467 7.11307 8.68815 7.12708 8.62858 7.12905C8.61684 7.12935 8.60504 7.12982 8.59325 7.13047C8.40957 7.1407 8.23061 7.19249 8.06986 7.28192C7.9091 7.37136 7.77074 7.49611 7.66519 7.64678C7.55965 7.79745 7.48968 7.97011 7.46055 8.15175C7.43142 8.33339 7.44389 8.51927 7.49703 8.69539C7.51901 8.77103 7.53938 8.83821 7.558 8.89956C7.59828 9.03234 7.63029 9.13784 7.65231 9.24293C7.69817 9.46174 7.73543 9.68836 7.86574 9.87002C8.08844 10.1805 8.39282 10.4559 8.77976 10.6601C8.96129 10.7559 9.17034 10.7744 9.37391 10.8007C9.47035 10.8131 9.56674 10.833 9.67803 10.856C9.76481 10.8739 9.86066 10.8937 9.97264 10.9132C10.1535 10.9468 10.3397 10.9388 10.5171 10.89C10.6944 10.8412 10.8584 10.7527 10.9966 10.6313C11.1348 10.5099 11.2437 10.3586 11.315 10.189C11.3863 10.0194 11.4182 9.83588 11.4082 9.65217C11.4075 9.64037 11.4067 9.62862 11.4057 9.61693C11.4011 9.55751 11.4086 9.49777 11.4278 9.44132C11.4469 9.38487 11.4773 9.33288 11.517 9.28848C11.5568 9.24409 11.6051 9.20821 11.6592 9.18301C11.7132 9.15781 11.7717 9.14382 11.8313 9.14188C11.8335 9.14176 11.8357 9.14168 11.8378 9.14162C11.8388 9.14159 11.8398 9.14156 11.8408 9.14154C11.8432 9.14148 11.8456 9.14141 11.8479 9.14131C12.055 9.13306 12.2565 9.07199 12.4333 8.96393C12.6101 8.85586 12.7563 8.70438 12.8581 8.52388C12.9598 8.34339 13.0138 8.13987 13.0147 7.93266C13.0157 7.72545 12.9636 7.52144 12.8635 7.34002C12.8102 7.23825 12.798 7.11987 12.8295 7.00937C12.8609 6.89886 12.9337 6.80469 13.0327 6.74633C13.2349 6.62505 13.3975 6.44752 13.5005 6.23541C13.6036 6.0233 13.6427 5.78578 13.613 5.55183Z" fill="#6BB229"/>
</g>
<path d="M16.1784 9.0089C16.2209 8.74833 16.1775 8.481 16.0545 8.24735C15.9316 8.0137 15.7358 7.82647 15.497 7.71398C15.2581 7.60149 14.9891 7.56988 14.7307 7.62393C14.4723 7.67797 14.2385 7.81473 14.0647 8.01351C13.9897 8.1006 13.8842 8.15553 13.7698 8.16695C13.6555 8.17836 13.5411 8.14539 13.4504 8.07484C13.2896 7.94419 13.098 7.85684 12.8939 7.82108C12.6898 7.78531 12.48 7.80233 12.2843 7.87051C12.0887 7.9387 11.9137 8.05578 11.776 8.21063C11.6383 8.36549 11.5426 8.55297 11.4978 8.75527C11.4968 8.75938 11.4959 8.76349 11.4951 8.76759C11.4949 8.76828 11.4948 8.76898 11.4947 8.76966C11.4945 8.77031 11.4944 8.77096 11.4942 8.77161C11.4818 8.82989 11.4576 8.88504 11.4232 8.93373C11.3888 8.98242 11.345 9.02364 11.2942 9.05492C11.2435 9.0862 11.187 9.10688 11.128 9.11572C11.0691 9.12456 11.009 9.12137 10.9513 9.10635C10.9399 9.1033 10.9285 9.1004 10.917 9.09768C10.738 9.05535 10.5517 9.05421 10.3722 9.09433C10.1926 9.13446 10.0245 9.2148 9.88056 9.32932C9.73659 9.44383 9.62048 9.58952 9.54099 9.75542C9.4615 9.92132 9.4207 10.1031 9.42165 10.2871C9.42125 10.3658 9.42173 10.436 9.42216 10.5001C9.4231 10.6389 9.42384 10.7491 9.41512 10.8561C9.39698 11.079 9.36838 11.3068 9.44176 11.518C9.56717 11.8789 9.78085 12.2295 10.0939 12.5351C10.2408 12.6785 10.436 12.7556 10.6237 12.8385C10.7126 12.8778 10.7994 12.9243 10.8996 12.9779C10.9778 13.0197 11.064 13.0659 11.1659 13.1164C11.3298 13.1999 11.5105 13.2451 11.6945 13.2487C11.8784 13.2522 12.0608 13.2139 12.2278 13.1367C12.3948 13.0595 12.5421 12.9454 12.6586 12.803C12.7751 12.6607 12.8577 12.4937 12.9003 12.3147C12.9031 12.3032 12.9056 12.2917 12.908 12.2802C12.9204 12.2219 12.9446 12.1668 12.979 12.1181C13.0133 12.0694 13.0572 12.0282 13.1079 11.9969C13.1587 11.9656 13.2152 11.9449 13.2742 11.9361C13.3331 11.9273 13.3932 11.9305 13.4509 11.9455C13.453 11.946 13.4551 11.9466 13.4572 11.9471C13.4582 11.9474 13.4591 11.9476 13.4601 11.9479C13.4624 11.9485 13.4647 11.9491 13.467 11.9497C13.6679 12.0006 13.8784 11.9992 14.0786 11.9458C14.2788 11.8923 14.462 11.7886 14.6109 11.6444C14.7597 11.5002 14.8691 11.3204 14.9289 11.122C14.9886 10.9236 14.9966 10.7132 14.9521 10.5108C14.9299 10.3981 14.9518 10.2811 15.0133 10.1841C15.0749 10.087 15.1714 10.0174 15.2829 9.98953C15.5112 9.93066 15.7175 9.80658 15.8765 9.63244C16.0355 9.45831 16.1404 9.24165 16.1784 9.0089Z" fill="#6BB229"/>
<g style="mix-blend-mode:multiply" opacity="0.56">
<path d="M16.1784 9.0089C16.2209 8.74833 16.1775 8.481 16.0545 8.24735C15.9316 8.0137 15.7358 7.82647 15.497 7.71398C15.2581 7.60149 14.9891 7.56988 14.7307 7.62393C14.4723 7.67797 14.2385 7.81473 14.0647 8.01351C13.9897 8.1006 13.8842 8.15553 13.7698 8.16695C13.6555 8.17836 13.5411 8.14539 13.4504 8.07484C13.2896 7.94419 13.098 7.85684 12.8939 7.82108C12.6898 7.78531 12.48 7.80233 12.2843 7.87051C12.0887 7.9387 11.9137 8.05578 11.776 8.21063C11.6383 8.36549 11.5426 8.55297 11.4978 8.75527C11.4968 8.75938 11.4959 8.76349 11.4951 8.76759C11.4949 8.76828 11.4948 8.76898 11.4947 8.76966C11.4945 8.77031 11.4944 8.77096 11.4942 8.77161C11.4818 8.82989 11.4576 8.88504 11.4232 8.93373C11.3888 8.98242 11.345 9.02364 11.2942 9.05492C11.2435 9.0862 11.187 9.10688 11.128 9.11572C11.0691 9.12456 11.009 9.12137 10.9513 9.10635C10.9399 9.1033 10.9285 9.1004 10.917 9.09768C10.738 9.05535 10.5517 9.05421 10.3722 9.09433C10.1926 9.13446 10.0245 9.2148 9.88056 9.32932C9.73659 9.44383 9.62048 9.58952 9.54099 9.75542C9.4615 9.92132 9.4207 10.1031 9.42165 10.2871C9.42125 10.3658 9.42173 10.436 9.42216 10.5001C9.4231 10.6389 9.42384 10.7491 9.41512 10.8561C9.39698 11.079 9.36838 11.3068 9.44176 11.518C9.56717 11.8789 9.78085 12.2295 10.0939 12.5351C10.2408 12.6785 10.436 12.7556 10.6237 12.8385C10.7126 12.8778 10.7994 12.9243 10.8996 12.9779C10.9778 13.0197 11.064 13.0659 11.1659 13.1164C11.3298 13.1999 11.5105 13.2451 11.6945 13.2487C11.8784 13.2522 12.0608 13.2139 12.2278 13.1367C12.3948 13.0595 12.5421 12.9454 12.6586 12.803C12.7751 12.6607 12.8577 12.4937 12.9003 12.3147C12.9031 12.3032 12.9056 12.2917 12.908 12.2802C12.9204 12.2219 12.9446 12.1668 12.979 12.1181C13.0133 12.0694 13.0572 12.0282 13.1079 11.9969C13.1587 11.9656 13.2152 11.9449 13.2742 11.9361C13.3331 11.9273 13.3932 11.9305 13.4509 11.9455C13.453 11.946 13.4551 11.9466 13.4572 11.9471C13.4582 11.9474 13.4591 11.9476 13.4601 11.9479C13.4624 11.9485 13.4647 11.9491 13.467 11.9497C13.6679 12.0006 13.8784 11.9992 14.0786 11.9458C14.2788 11.8923 14.462 11.7886 14.6109 11.6444C14.7597 11.5002 14.8691 11.3204 14.9289 11.122C14.9886 10.9236 14.9966 10.7132 14.9521 10.5108C14.9299 10.3981 14.9518 10.2811 15.0133 10.1841C15.0749 10.087 15.1714 10.0174 15.2829 9.98953C15.5112 9.93066 15.7175 9.80658 15.8765 9.63244C16.0355 9.45831 16.1404 9.24165 16.1784 9.0089Z" fill="#6BB229"/>
</g>
<g style="mix-blend-mode:multiply" opacity="0.36">
<path d="M12.1285 6.47233C12.2365 6.36096 12.2334 6.18344 12.1217 6.07584C12.01 5.96824 11.8319 5.97129 11.724 6.08267L10.7513 7.08626L10.7388 6.36133C10.7362 6.2065 10.6081 6.08314 10.4528 6.0858C10.2975 6.08847 10.1737 6.21615 10.1764 6.37099L10.1985 7.65662L9.36924 8.51216L9.35679 7.78724C9.35414 7.6324 9.22607 7.50904 9.07076 7.51171C8.91545 7.51438 8.7917 7.64206 8.79435 7.79689L8.81642 9.08253L8.42507 9.47512C8.31725 9.58651 8.32035 9.76393 8.432 9.87148C8.54376 9.97913 8.72193 9.97601 8.82985 9.86452L9.22094 9.47219L10.5105 9.45006C10.6659 9.44739 10.7896 9.31971 10.787 9.16487C10.7843 9.01004 10.6562 8.88668 10.5009 8.88935L9.77376 8.90183L10.603 8.04628L11.8926 8.02415C12.0479 8.02148 12.1717 7.8938 12.169 7.73897C12.1663 7.58413 12.0383 7.46077 11.883 7.46344L11.1558 7.47592L12.1285 6.47233Z" fill="#6BB229"/>
</g>
<g style="mix-blend-mode:multiply" opacity="0.36">
<path d="M14.6944 9.43228C14.8181 9.33873 14.8422 9.16284 14.7483 9.03941C14.6544 8.91598 14.478 8.89175 14.3543 8.98529L13.2394 9.82819L13.3381 9.1099C13.3591 8.95649 13.2514 8.81498 13.0976 8.79385C12.9437 8.77271 12.8018 8.87995 12.7808 9.03337L12.6058 10.3072L11.6554 11.0258L11.7541 10.3075C11.7751 10.1541 11.6675 10.0126 11.5136 9.99145C11.3597 9.97031 11.2178 10.0775 11.1968 10.231L11.0218 11.5048L10.575 11.8329C10.4514 11.9265 10.4273 12.1023 10.5212 12.2257C10.6152 12.3491 10.7917 12.3733 10.9154 12.2797L11.362 11.9518L12.6398 12.1273C12.7936 12.1484 12.9355 12.0412 12.9565 11.8878C12.9776 11.7344 12.8699 11.5929 12.7161 11.5717L11.9955 11.4728L12.9459 10.7542L14.2237 10.9297C14.3776 10.9508 14.5195 10.8436 14.5405 10.6902C14.5616 10.5368 14.4539 10.3953 14.3 10.3741L13.5795 10.2752L14.6944 9.43228Z" fill="#6BB229"/>
</g>
<path d="M16.7186 11.382C16.7782 11.6392 16.7525 11.9089 16.6453 12.1501C16.5496 12.3656 16.3931 12.5486 16.1952 12.6767C15.9972 12.8049 15.7662 12.8726 15.5304 12.8716C15.4155 12.8703 15.3045 12.9132 15.2203 12.9915C15.1362 13.0697 15.0853 13.1773 15.0783 13.292C15.07 13.499 15.0089 13.7005 14.9008 13.8773C14.7927 14.0541 14.6412 14.2003 14.4607 14.302C14.2802 14.4037 14.0767 14.4576 13.8695 14.4586C13.6622 14.4595 13.4582 14.4074 13.2768 14.3073C13.2747 14.3061 13.2727 14.3049 13.2706 14.3038C13.2678 14.3022 13.2651 14.3006 13.2623 14.2992C13.2103 14.27 13.153 14.2516 13.0937 14.2452C13.0345 14.2388 12.9745 14.2445 12.9175 14.2619C12.8605 14.2793 12.8076 14.308 12.762 14.3464C12.7164 14.3848 12.6791 14.432 12.6523 14.4853C12.6471 14.4958 12.6417 14.5062 12.6361 14.5167C12.5495 14.679 12.4272 14.8196 12.2784 14.9277C12.1296 15.0359 11.9582 15.1089 11.7771 15.1413C11.596 15.1736 11.4099 15.1644 11.2329 15.1143C11.0558 15.0643 10.8924 14.9747 10.7551 14.8524C10.3655 14.5126 9.91751 14.2465 9.43284 14.067C9.35656 14.0379 9.27638 14.0131 9.1952 14.0219C9.14742 14.0271 9.09983 14.0355 9.05276 14.0472L9.04513 14.0491C8.07137 14.3461 7.16685 14.8349 6.38477 15.4866L5.5795 16.1575C5.43544 16.2776 5.25387 16.3433 5.06635 16.3433H5.05144C4.93358 16.3434 4.81716 16.3175 4.7105 16.2674C4.68958 16.2575 4.66914 16.2468 4.64922 16.2353C4.5145 16.1571 4.53329 15.9734 4.65437 15.8754C4.81145 15.7483 5.19045 15.5133 5.35475 15.3957C5.49084 15.2982 5.67735 15.1569 5.9329 14.9525C6.62091 14.4021 7.71055 13.6844 8.91213 13.3019C8.98798 13.2781 9.04688 13.2205 9.08917 13.1532C9.13696 13.0771 9.19281 12.9903 9.21801 12.9545C9.51994 12.535 9.65168 12.1725 9.78528 11.6732C9.831 11.495 9.91656 11.3295 10.0355 11.1892C10.1545 11.0489 10.3037 10.9374 10.472 10.8631C10.6403 10.7889 10.8233 10.7538 11.0072 10.7605C11.191 10.7672 11.3709 10.8155 11.5333 10.9019C11.5438 10.9074 11.5541 10.9131 11.5643 10.919C11.6163 10.9481 11.6736 10.9664 11.7329 10.9728C11.7922 10.9792 11.8521 10.9736 11.9091 10.9562C11.9661 10.9388 12.019 10.91 12.0646 10.8716C12.1102 10.8333 12.1475 10.786 12.1744 10.7328C12.175 10.7316 12.1756 10.7304 12.1762 10.7291C12.1781 10.7254 12.18 10.7216 12.1819 10.7179C12.2766 10.5336 12.4168 10.3765 12.5892 10.2616C12.7616 10.1467 12.9606 10.0779 13.1672 10.0615C13.3737 10.0452 13.581 10.0819 13.7694 10.1683C13.9577 10.2546 14.1209 10.3877 14.2433 10.5549C14.3132 10.6461 14.4154 10.707 14.5289 10.7249C14.6424 10.7429 14.7585 10.7165 14.8531 10.6513C15.0716 10.5031 15.3324 10.4301 15.5961 10.4433C15.8598 10.4566 16.112 10.5554 16.3145 10.7247C16.517 10.8941 16.6589 11.1249 16.7186 11.382Z" fill="#6BB229"/>
<g style="mix-blend-mode:multiply" opacity="0.36">
<path d="M16.7186 11.382C16.7782 11.6392 16.7525 11.9089 16.6453 12.1501C16.5496 12.3656 16.3931 12.5486 16.1952 12.6767C15.9972 12.8049 15.7662 12.8726 15.5304 12.8716C15.4155 12.8703 15.3045 12.9132 15.2203 12.9915C15.1362 13.0697 15.0853 13.1773 15.0783 13.292C15.07 13.499 15.0089 13.7005 14.9008 13.8773C14.7927 14.0541 14.6412 14.2003 14.4607 14.302C14.2802 14.4037 14.0767 14.4576 13.8695 14.4586C13.6622 14.4595 13.4582 14.4074 13.2768 14.3073C13.2747 14.3061 13.2727 14.3049 13.2706 14.3038C13.2678 14.3022 13.2651 14.3006 13.2623 14.2992C13.2103 14.27 13.153 14.2516 13.0937 14.2452C13.0345 14.2388 12.9745 14.2445 12.9175 14.2619C12.8605 14.2793 12.8076 14.308 12.762 14.3464C12.7164 14.3848 12.6791 14.432 12.6523 14.4853C12.6471 14.4958 12.6417 14.5062 12.6361 14.5167C12.5495 14.679 12.4272 14.8196 12.2784 14.9277C12.1296 15.0359 11.9582 15.1089 11.7771 15.1413C11.596 15.1736 11.4099 15.1644 11.2329 15.1143C11.0558 15.0643 10.8924 14.9747 10.7551 14.8524C10.3655 14.5126 9.91751 14.2465 9.43284 14.067C9.35656 14.0379 9.27638 14.0131 9.1952 14.0219C9.14742 14.0271 9.09983 14.0355 9.05276 14.0472L9.04513 14.0491C8.07137 14.3461 7.16685 14.8349 6.38477 15.4866L5.5795 16.1575C5.43544 16.2776 5.25387 16.3433 5.06635 16.3433H5.05144C4.93358 16.3434 4.81716 16.3175 4.7105 16.2674C4.68958 16.2575 4.66914 16.2468 4.64922 16.2353C4.5145 16.1571 4.53329 15.9734 4.65437 15.8754C4.81145 15.7483 5.19045 15.5133 5.35475 15.3957C5.49084 15.2982 5.67735 15.1569 5.9329 14.9525C6.62091 14.4021 7.71055 13.6844 8.91213 13.3019C8.98798 13.2781 9.04688 13.2205 9.08917 13.1532C9.13696 13.0771 9.19281 12.9903 9.21801 12.9545C9.51994 12.535 9.65168 12.1725 9.78528 11.6732C9.831 11.495 9.91656 11.3295 10.0355 11.1892C10.1545 11.0489 10.3037 10.9374 10.472 10.8631C10.6403 10.7889 10.8233 10.7538 11.0072 10.7605C11.191 10.7672 11.3709 10.8155 11.5333 10.9019C11.5438 10.9074 11.5541 10.9131 11.5643 10.919C11.6163 10.9481 11.6736 10.9664 11.7329 10.9728C11.7922 10.9792 11.8521 10.9736 11.9091 10.9562C11.9661 10.9388 12.019 10.91 12.0646 10.8716C12.1102 10.8333 12.1475 10.786 12.1744 10.7328C12.175 10.7316 12.1756 10.7304 12.1762 10.7291C12.1781 10.7254 12.18 10.7216 12.1819 10.7179C12.2766 10.5336 12.4168 10.3765 12.5892 10.2616C12.7616 10.1467 12.9606 10.0779 13.1672 10.0615C13.3737 10.0452 13.581 10.0819 13.7694 10.1683C13.9577 10.2546 14.1209 10.3877 14.2433 10.5549C14.3132 10.6461 14.4154 10.707 14.5289 10.7249C14.6424 10.7429 14.7585 10.7165 14.8531 10.6513C15.0716 10.5031 15.3324 10.4301 15.5961 10.4433C15.8598 10.4566 16.112 10.5554 16.3145 10.7247C16.517 10.8941 16.6589 11.1249 16.7186 11.382Z" fill="#6BB229"/>
</g>
<g style="mix-blend-mode:multiply" opacity="0.36">
<path d="M14.7086 12.1304C14.8556 12.0811 14.9345 11.922 14.8847 11.7751C14.835 11.6282 14.6754 11.5491 14.5284 11.5984L13.2033 12.0428L13.5253 11.3932C13.5941 11.2545 13.5371 11.0861 13.3979 11.0171C13.2587 10.9481 13.0902 11.0046 13.0214 11.1433L12.4502 12.2953L11.3205 12.6741L11.6426 12.0245C11.7114 11.8858 11.6543 11.7174 11.5152 11.6484C11.376 11.5794 11.2074 11.6359 11.1386 11.7747L10.5674 12.9266L10.0394 13.0955C9.89249 13.1449 9.81371 13.3039 9.86346 13.4507C9.91324 13.5977 10.0729 13.6768 10.22 13.6273L10.7476 13.4586L11.9032 14.0316C12.0424 14.1006 12.2109 14.0441 12.2797 13.9053C12.3485 13.7666 12.2915 13.5982 12.1523 13.5292L11.5007 13.2061L12.6304 12.8273L13.7859 13.4003C13.9251 13.4693 14.0937 13.4127 14.1625 13.274C14.2313 13.1352 14.1742 12.9668 14.035 12.8978L13.3835 12.5748L14.7086 12.1304Z" fill="#6BB229"/>
</g>
<path d="M9.43201 3.83228C9.67815 3.92779 9.88648 4.10088 10.0255 4.32536C10.1496 4.52584 10.2128 4.75813 10.2072 4.99388C10.2015 5.22963 10.1274 5.45865 9.99384 5.65299C9.92805 5.7472 9.90099 5.86309 9.91826 5.97668C9.93552 6.09028 9.9958 6.1929 10.0866 6.2633C10.253 6.38674 10.3851 6.55069 10.4703 6.73956C10.5556 6.92844 10.5911 7.13597 10.5735 7.34243C10.5559 7.54889 10.4858 7.74743 10.3699 7.91918C10.254 8.09092 10.0961 8.23018 9.91116 8.32371C9.90902 8.32479 9.90688 8.32584 9.90473 8.32689C9.90189 8.32828 9.89905 8.32966 9.89626 8.33113C9.84288 8.35765 9.79543 8.3947 9.75676 8.44006C9.71809 8.48542 9.68902 8.53815 9.67129 8.59505C9.65355 8.65196 9.64753 8.71186 9.65358 8.77116C9.65964 8.83045 9.67764 8.88791 9.70651 8.94005C9.71227 8.95027 9.71789 8.96062 9.72339 8.97108C9.80876 9.13405 9.85603 9.31427 9.86164 9.49816C9.86725 9.68205 9.83105 9.86481 9.75577 10.0327C9.68048 10.2005 9.56808 10.3491 9.42703 10.4673C9.28598 10.5854 9.11996 10.6699 8.94148 10.7146C8.4414 10.8451 7.96921 11.0655 7.54793 11.3649L7.52741 11.3792C7.45639 11.4286 7.38209 11.4785 7.34277 11.5556C7.3223 11.5957 7.30509 11.6377 7.29145 11.6812C6.90895 12.8827 6.19125 13.9724 5.64083 14.6604C5.43639 14.9159 5.2951 15.1024 5.19766 15.2385C5.08003 15.4028 4.84505 15.7818 4.71793 15.9389C4.61995 16.06 4.43622 16.0788 4.35804 15.9441C4.34648 15.9242 4.33577 15.9037 4.32594 15.8828C4.27582 15.7761 4.24988 15.6597 4.25 15.5419V15.5269C4.25 15.3394 4.31575 15.1578 4.43579 15.0138L5.1068 14.2085C5.75851 13.4264 6.24723 12.5219 6.54422 11.5482L6.54611 11.5405C6.58299 11.3923 6.58172 11.2244 6.5545 11.076C6.55257 11.0712 6.55632 11.0809 6.5545 11.076C6.37783 10.5903 6.10561 10.1172 5.76822 9.72565C5.64672 9.58752 5.55815 9.42362 5.50919 9.2463C5.46023 9.06897 5.45215 8.88285 5.48555 8.70195C5.51896 8.52105 5.59299 8.35009 5.70207 8.20195C5.81114 8.05381 5.95241 7.93236 6.11523 7.84675C6.12568 7.84126 6.13622 7.83592 6.14678 7.83078C6.20014 7.80424 6.24758 7.76717 6.28624 7.72181C6.32489 7.67644 6.35396 7.62372 6.37169 7.56682C6.38943 7.50991 6.39545 7.45001 6.38941 7.39072C6.38337 7.33142 6.36539 7.27397 6.33655 7.22181C6.33588 7.22062 6.33521 7.21943 6.33454 7.21823C6.33249 7.21458 6.33043 7.21091 6.32847 7.20717C6.22944 7.02517 6.17859 6.82087 6.18076 6.61367C6.18293 6.40648 6.23804 6.20329 6.34085 6.0234C6.44367 5.8435 6.59078 5.69289 6.7682 5.58587C6.94562 5.47884 7.14747 5.41896 7.35455 5.41191C7.46929 5.40557 7.57719 5.35536 7.65594 5.27168C7.73469 5.18799 7.77826 5.07724 7.77763 4.96233C7.77819 4.69831 7.86474 4.44166 8.02418 4.23122C8.18362 4.02078 8.40728 3.868 8.6613 3.79602C8.91532 3.72404 9.18588 3.73677 9.43201 3.83228Z" fill="#6BB229"/>
<g style="mix-blend-mode:multiply" opacity="0.36">
<path d="M9.43201 3.83228C9.67815 3.92779 9.88648 4.10088 10.0255 4.32536C10.1496 4.52584 10.2128 4.75813 10.2072 4.99388C10.2015 5.22963 10.1274 5.45865 9.99384 5.65299C9.92805 5.7472 9.90099 5.86309 9.91826 5.97668C9.93552 6.09028 9.9958 6.1929 10.0866 6.2633C10.253 6.38674 10.3851 6.55069 10.4703 6.73956C10.5556 6.92844 10.5911 7.13597 10.5735 7.34243C10.5559 7.54889 10.4858 7.74743 10.3699 7.91918C10.254 8.09092 10.0961 8.23018 9.91116 8.32371C9.90902 8.32479 9.90688 8.32584 9.90473 8.32689C9.90189 8.32828 9.89905 8.32966 9.89626 8.33113C9.84288 8.35765 9.79543 8.3947 9.75676 8.44006C9.71809 8.48542 9.68902 8.53815 9.67129 8.59505C9.65355 8.65196 9.64753 8.71186 9.65358 8.77116C9.65964 8.83045 9.67764 8.88791 9.70651 8.94005C9.71227 8.95027 9.71789 8.96062 9.72339 8.97108C9.80876 9.13405 9.85603 9.31427 9.86164 9.49816C9.86725 9.68205 9.83105 9.86481 9.75577 10.0327C9.68048 10.2005 9.56808 10.3491 9.42703 10.4673C9.28598 10.5854 9.11996 10.6699 8.94148 10.7146C8.4414 10.8451 7.96921 11.0655 7.54793 11.3649L7.52741 11.3792C7.45639 11.4286 7.38209 11.4785 7.34277 11.5556C7.3223 11.5957 7.30509 11.6377 7.29145 11.6812C6.90895 12.8827 6.19125 13.9724 5.64083 14.6604C5.43639 14.9159 5.2951 15.1024 5.19766 15.2385C5.08003 15.4028 4.84505 15.7818 4.71793 15.9389C4.61995 16.06 4.43622 16.0788 4.35804 15.9441C4.34648 15.9242 4.33577 15.9037 4.32594 15.8828C4.27582 15.7761 4.24988 15.6597 4.25 15.5419V15.5269C4.25 15.3394 4.31575 15.1578 4.43579 15.0138L5.1068 14.2085C5.75851 13.4264 6.24723 12.5219 6.54422 11.5482L6.54611 11.5405C6.58299 11.3923 6.58172 11.2244 6.5545 11.076C6.55257 11.0712 6.55632 11.0809 6.5545 11.076C6.37783 10.5903 6.10561 10.1172 5.76822 9.72565C5.64672 9.58752 5.55815 9.42362 5.50919 9.2463C5.46023 9.06897 5.45215 8.88285 5.48555 8.70195C5.51896 8.52105 5.59299 8.35009 5.70207 8.20195C5.81114 8.05381 5.95241 7.93236 6.11523 7.84675C6.12568 7.84126 6.13622 7.83592 6.14678 7.83078C6.20014 7.80424 6.24758 7.76717 6.28624 7.72181C6.32489 7.67644 6.35396 7.62372 6.37169 7.56682C6.38943 7.50991 6.39545 7.45001 6.38941 7.39072C6.38337 7.33142 6.36539 7.27397 6.33655 7.22181C6.33588 7.22062 6.33521 7.21943 6.33454 7.21823C6.33249 7.21458 6.33043 7.21091 6.32847 7.20717C6.22944 7.02517 6.17859 6.82087 6.18076 6.61367C6.18293 6.40648 6.23804 6.20329 6.34085 6.0234C6.44367 5.8435 6.59078 5.69289 6.7682 5.58587C6.94562 5.47884 7.14747 5.41896 7.35455 5.41191C7.46929 5.40557 7.57719 5.35536 7.65594 5.27168C7.73469 5.18799 7.77826 5.07724 7.77763 4.96233C7.77819 4.69831 7.86474 4.44166 8.02418 4.23122C8.18362 4.02078 8.40728 3.868 8.6613 3.79602C8.91532 3.72404 9.18588 3.73677 9.43201 3.83228Z" fill="#6BB229"/>
</g>
<g style="mix-blend-mode:multiply" opacity="0.36">
<path d="M9.09658 5.93226C9.15163 5.78725 9.07857 5.62544 8.9334 5.57084C8.78822 5.51624 8.62591 5.58952 8.57086 5.73453L8.07482 7.04117L7.77646 6.38037C7.71273 6.23923 7.5463 6.17663 7.40473 6.24056C7.26316 6.30448 7.20005 6.47072 7.26377 6.61185L7.79291 7.78376L7.37004 8.89765L7.07168 8.23685C7.00795 8.09571 6.84152 8.03312 6.69995 8.09704C6.55837 8.16096 6.49526 8.3272 6.55899 8.46834L7.08812 9.64024L6.88412 10.1557C6.8292 10.3006 6.90227 10.4623 7.04738 10.5169C7.19262 10.5715 7.355 10.4982 7.40997 10.3531L7.61384 9.83797L8.78937 9.3072C8.93094 9.24328 8.99405 9.07704 8.93032 8.93591C8.8666 8.79477 8.70017 8.73217 8.55859 8.79609L7.89576 9.09538L8.31862 7.98149L9.49415 7.45072C9.63572 7.3868 9.69883 7.22056 9.63511 7.07942C9.57138 6.93828 9.40495 6.87569 9.26338 6.93961L8.60054 7.23889L9.09658 5.93226Z" fill="#6BB229"/>
</g>
<path d="M13.1028 7.63049C13.2763 7.82944 13.3803 8.07952 13.3991 8.34288C13.4159 8.5781 13.3638 8.81312 13.2493 9.01926C13.1348 9.2254 12.9627 9.39374 12.7541 9.50374C12.6521 9.55658 12.5743 9.64662 12.5368 9.75523C12.4993 9.86384 12.5049 9.98271 12.5526 10.0873C12.6426 10.2739 12.6834 10.4805 12.6711 10.6873C12.6588 10.8941 12.5938 11.0944 12.4823 11.269C12.3707 11.4437 12.2164 11.5869 12.034 11.6851C11.8515 11.7833 11.647 11.8332 11.4398 11.8301C11.4374 11.8301 11.435 11.83 11.4326 11.83C11.4294 11.8299 11.4263 11.8298 11.4231 11.8298C11.3635 11.8284 11.3043 11.8392 11.249 11.8614C11.1937 11.8836 11.1434 11.9168 11.1013 11.9589C11.0591 12.0011 11.026 12.0513 11.0038 12.1066C10.9816 12.1619 10.9708 12.2212 10.9721 12.2808C10.9725 12.2925 10.9727 12.3043 10.9727 12.3161C10.9725 12.5001 10.9306 12.6816 10.8501 12.847C10.7697 13.0125 10.6527 13.1575 10.508 13.2711C10.3633 13.3848 10.1947 13.4641 10.015 13.5032C9.83517 13.5422 9.64887 13.5399 9.47009 13.4965C8.9666 13.3797 8.79651 13.2771 8.28433 13.3464C8.27218 13.3479 8.24309 13.3528 8.20428 13.3595C7.91405 13.4092 7.62018 13.5495 7.41196 13.7577L6.48105 14.6887C6.10116 15.0685 5.75972 15.485 5.46171 15.9321L5.35043 16.099C5.29557 16.1812 5.22125 16.2487 5.13407 16.2953C5.04689 16.342 4.94953 16.3664 4.85065 16.3664C4.77177 16.3664 4.69366 16.3508 4.62079 16.3207C4.54791 16.2905 4.4817 16.2462 4.42592 16.1905C4.37014 16.1347 4.3259 16.0685 4.29572 15.9956C4.26553 15.9227 4.25 15.8446 4.25 15.7657C4.25 15.6668 4.27442 15.5695 4.32108 15.4823C4.36774 15.3951 4.43521 15.3208 4.51749 15.2659L4.68439 15.1547C5.13142 14.8566 5.54791 14.5152 5.9278 14.1353L6.85871 13.2044C7.06692 12.9962 7.19456 12.7013 7.22373 12.4083C7.22916 12.3537 7.23358 12.3121 7.23541 12.2975C7.30473 11.7853 7.23664 11.6497 7.11987 11.1462C7.07648 10.9674 7.07422 10.7811 7.11327 10.6014C7.15232 10.4216 7.23166 10.253 7.34531 10.1084C7.45896 9.96373 7.60396 9.84675 7.76938 9.76627C7.9348 9.68579 8.11633 9.6439 8.30029 9.64376C8.3121 9.64376 8.32391 9.64393 8.33564 9.64428C8.39523 9.64558 8.45446 9.63481 8.50977 9.6126C8.56508 9.59039 8.61532 9.55722 8.65747 9.51508C8.69961 9.47293 8.73279 9.42269 8.75499 9.36738C8.7772 9.31207 8.78798 9.25284 8.78668 9.19325C8.78664 9.19189 8.7866 9.19053 8.78656 9.18916C8.78644 9.18497 8.78632 9.18077 8.78632 9.17654C8.78322 8.96936 8.83314 8.76483 8.93134 8.58238C9.02955 8.39993 9.17277 8.24562 9.34741 8.13411C9.52205 8.0226 9.72231 7.95761 9.92914 7.94529C10.136 7.93298 10.3425 7.97375 10.5292 8.06375C10.6337 8.11145 10.7526 8.11714 10.8612 8.07964C10.9698 8.04214 11.0599 7.96431 11.1127 7.86227C11.2359 7.62875 11.4318 7.44172 11.6708 7.32948C11.9098 7.21724 12.1788 7.18591 12.4372 7.24022C12.6955 7.29453 12.9292 7.43153 13.1028 7.63049Z" fill="#6BB229"/>
<g style="mix-blend-mode:multiply" opacity="0.36">
<path d="M11.7058 9.28349C11.8157 9.17398 11.8157 8.99644 11.7058 8.88694C11.596 8.77743 11.4179 8.77743 11.3081 8.88694L10.3183 9.87369V9.14865C10.3183 8.99379 10.1923 8.86826 10.037 8.86826C9.88166 8.86826 9.75573 8.99379 9.75573 9.14865V10.4345L8.91195 11.2757V10.5506C8.91195 10.3958 8.78602 10.2702 8.63068 10.2702C8.47535 10.2702 8.34942 10.3958 8.34942 10.5506V11.8365L7.95139 12.2223C7.84167 12.3318 7.84173 12.5092 7.95152 12.6187C8.06142 12.7282 8.23961 12.7282 8.34943 12.6186L8.7472 12.233H10.037C10.1923 12.233 10.3183 12.1075 10.3183 11.9526C10.3183 11.7978 10.1923 11.6722 10.037 11.6722H9.30972L10.1535 10.831H11.4433C11.5986 10.831 11.7246 10.7055 11.7246 10.5506C11.7246 10.3958 11.5986 10.2702 11.4433 10.2702H10.716L11.7058 9.28349Z" fill="#6BB229"/>
</g>
</g>
<defs>
<clipPath id="clip0_985_17391">
<rect width="20" height="20" fill="white" transform="translate(0.5)"/>
</clipPath>
</defs>
</svg>
