<svg width="40" height="35" viewBox="0 0 40 35" fill="none" xmlns="http://www.w3.org/2000/svg">
<g id="Heart">
<path id="Vector" d="M27.9 5.83333C26.8876 5.78599 25.8747 5.91877 24.9225 6.22364C23.9704 6.5285 23.0987 6.99913 22.3603 7.60708C21.6219 8.21502 21.032 8.94766 20.6264 9.76072C20.2207 10.5738 20.0076 11.4504 20 12.3375C19.9925 11.4504 19.7794 10.5738 19.3737 9.76072C18.9681 8.94766 18.3782 8.21502 17.6398 7.60708C16.9014 6.99913 16.0297 6.5285 15.0776 6.22364C14.1254 5.91877 13.1125 5.78599 12.1 5.83333C10.1185 5.99219 8.28087 6.80629 6.96162 8.10967C5.64236 9.41306 4.94084 11.1076 5.00005 12.8479C5.00005 24.15 15.5834 28.1167 18.9667 29.1667C19.6382 29.3582 20.3619 29.3582 21.0334 29.1667C24.3667 28.1896 34.95 24.2229 35 12.9208C35.081 11.1682 34.3893 9.4553 33.0679 8.13623C31.7465 6.81716 29.8964 5.99272 27.9 5.83333Z" stroke="#00153F" stroke-width="1.5" stroke-linecap="round" stroke-linejoin="round"/>
</g>
</svg>
