<svg width="64" height="64" viewBox="0 0 64 64" fill="none" xmlns="http://www.w3.org/2000/svg">
<g clip-path="url(#clip0_341_17310)">
<circle opacity="0.1" cx="32" cy="32" r="18" fill="#F55349"/>
<ellipse opacity="0.14" cx="32" cy="54.65" rx="25" ry="1.65" fill="#F55349"/>
<path d="M22.1357 27.6237H41.3357L32.2072 53.6639C32.0501 54.1121 31.4214 54.1121 31.2643 53.6639L22.1357 27.6237Z" fill="#FFC34F"/>
<g style="mix-blend-mode:multiply" opacity="0.36">
<path d="M22.1357 27.6237L31.2643 53.6639L31.2653 53.6668C31.3445 53.8889 31.5401 54 31.7357 54V27.6237H22.1357Z" fill="#FFC34F"/>
</g>
<path d="M44.2623 27.2959C44.1123 25.9475 43.0498 24.8637 41.7123 24.6873C41.5998 24.6746 41.4998 24.662 41.3873 24.662C41.6623 23.7295 41.8123 22.7465 41.8123 21.7131C41.8123 16.105 37.2998 11.5555 31.7373 11.5555C26.1748 11.5555 21.6623 16.105 21.6623 21.7131C21.6623 22.7591 21.8248 23.7673 22.1123 24.7125C20.8248 24.9645 19.8123 26.0861 19.7248 27.4346C19.6123 29.1611 20.9748 30.5852 22.6623 30.5852C22.9248 30.5852 23.1748 30.5474 23.4123 30.4844C24.4373 30.2071 25.4998 30.1945 26.5373 30.4087C28.0623 31.3413 29.8373 31.8706 31.7498 31.8706C33.5873 31.8706 37.2123 30.5726 37.4373 30.5726C37.6498 30.5726 37.8623 30.5474 38.0623 30.5096C38.9373 30.3205 39.8498 30.3205 40.7248 30.5096C40.9248 30.56 41.1373 30.5726 41.3498 30.5726C43.0748 30.5852 44.4623 29.0729 44.2623 27.2959Z" fill="#F55349"/>
<g style="mix-blend-mode:multiply" opacity="0.4">
<path d="M26.4373 28.4554C26.5248 27.1069 27.5248 25.9853 28.8248 25.7333C28.5373 24.7881 28.3748 23.7799 28.3748 22.7339C28.3748 17.7937 31.8748 13.6727 36.5123 12.7654C35.0873 11.9966 33.4623 11.5555 31.7373 11.5555C26.1748 11.5555 21.6623 16.105 21.6623 21.7131C21.6623 22.7591 21.8248 23.7673 22.1123 24.7125C20.8248 24.9645 19.8123 26.0861 19.7248 27.4346C19.6123 29.1611 20.9748 30.5852 22.6623 30.5852C22.9248 30.5852 23.1748 30.5474 23.4123 30.4844C24.4373 30.2071 25.4998 30.1945 26.5373 30.4088C26.8623 30.6104 27.1998 30.7868 27.5498 30.9507C26.8248 30.3835 26.3748 29.4762 26.4373 28.4554Z" fill="#F55349"/>
</g>
<g style="mix-blend-mode:multiply" opacity="0.4">
<path d="M33.2372 31.4422C32.1997 31.2153 31.1372 31.2405 30.1122 31.5178C29.8747 31.5808 29.6372 31.606 29.3872 31.6186C30.1372 31.795 30.9247 31.8959 31.7372 31.8959C32.2497 31.8959 32.8997 31.795 33.5747 31.6438C33.4747 31.5808 33.3497 31.5052 33.2372 31.4422Z" fill="#F55349"/>
</g>
<g style="mix-blend-mode:multiply" opacity="0.36">
<path d="M31.7363 39.3565L38.7113 35.1221L36.2613 42.1038L31.7363 39.3565Z" fill="#FFC34F"/>
</g>
</g>
<defs>
<clipPath id="clip0_341_17310">
<rect width="64" height="64" fill="white"/>
</clipPath>
</defs>
</svg>
