<svg width="25" height="25" viewBox="0 0 25 25" fill="none" xmlns="http://www.w3.org/2000/svg">
<g id="Logout-Rounded">
<path id="Vector" d="M15.5 16.1985C15.5 17.5246 14.9732 18.7963 14.0355 19.734C13.0979 20.6717 11.8261 21.1985 10.5 21.1985C9.17392 21.1985 7.90215 20.6717 6.96447 19.734C6.02678 18.7963 5.5 17.5246 5.5 16.1985V8.19849C5.5 6.8724 6.02678 5.60063 6.96447 4.66295C7.90215 3.72527 9.17392 3.19849 10.5 3.19849C11.8261 3.19849 13.0979 3.72527 14.0355 4.66295C14.9732 5.60063 15.5 6.8724 15.5 8.19849" stroke="#00153F" stroke-width="1.5" stroke-linecap="round" stroke-linejoin="round"/>
<path id="Vector_2" d="M22.5 11.9285H10.5" stroke="#00153F" stroke-width="1.5" stroke-linecap="round" stroke-linejoin="round"/>
<path id="Vector_3" d="M18.8999 8.32837L22.4999 11.9284L18.8999 15.5284" stroke="#00153F" stroke-width="1.5" stroke-linecap="round" stroke-linejoin="round"/>
</g>
</svg>
