<svg width="64" height="64" viewBox="0 0 64 64" fill="none" xmlns="http://www.w3.org/2000/svg">
<g clip-path="url(#clip0_341_17092)">
<circle opacity="0.1" cx="32" cy="32" r="18" fill="#F55349"/>
<ellipse opacity="0.14" cx="32" cy="54.65" rx="25" ry="1.65" fill="#F55349"/>
<path d="M35.47 43.7397C39.05 43.7397 41.94 40.9307 41.94 37.4614C41.94 33.992 39.04 31.183 35.47 31.183C31.9 31.183 29 33.992 29 37.4614C29 40.9307 31.9 43.7397 35.47 43.7397Z" fill="#FFC34F"/>
<g style="mix-blend-mode:multiply" opacity="0.4">
<path d="M35.4702 41.5615C37.8102 41.5615 39.7002 39.7283 39.7002 37.4614C39.7002 35.1945 37.8102 33.3612 35.4702 33.3612C33.1302 33.3612 31.2402 35.1945 31.2402 37.4614C31.2402 39.7283 33.1302 41.5615 35.4702 41.5615Z" fill="#FFC34F"/>
</g>
<path d="M35.4702 39.1961C36.4602 39.1961 37.2602 38.4174 37.2602 37.4614C37.2602 36.5053 36.4602 35.7267 35.4702 35.7267C34.4802 35.7267 33.6802 36.5053 33.6802 37.4614C33.6802 38.4174 34.4802 39.1961 35.4702 39.1961Z" fill="#FFC34F"/>
<path d="M25.0101 43.3652C27.8601 43.3652 30.1701 41.1279 30.1701 38.3583C30.1701 35.5887 27.8601 33.3513 25.0101 33.3513C22.1601 33.3513 19.8501 35.5887 19.8501 38.3583C19.8501 41.1279 22.1601 43.3652 25.0101 43.3652Z" fill="#FFC34F"/>
<g style="mix-blend-mode:multiply" opacity="0.4">
<path d="M25.0101 41.6305C26.8701 41.6305 28.3801 40.1619 28.3801 38.3583C28.3801 36.5546 26.8701 35.086 25.0101 35.086C23.1501 35.086 21.6401 36.5546 21.6401 38.3583C21.6401 40.1619 23.1501 41.6305 25.0101 41.6305Z" fill="#FFC34F"/>
</g>
<path d="M25.0103 39.7381C25.8003 39.7381 26.4303 39.1172 26.4303 38.3583C26.4303 37.5993 25.7903 36.9784 25.0103 36.9784C24.2303 36.9784 23.5903 37.5993 23.5903 38.3583C23.5903 39.1172 24.2303 39.7381 25.0103 39.7381Z" fill="#FFC34F"/>
<path d="M19.0099 29.5862C18.8199 29.4187 18.8599 29.1131 19.0899 29.0047L45.5999 17.0886C46.2799 16.7831 47.0599 17.266 47.0599 17.9954V19.4245C47.0599 19.8385 46.7899 20.213 46.3899 20.3609L19.8599 30.0692C19.7399 30.1086 19.5999 30.0889 19.5099 30.0101L19.0199 29.5961L19.0099 29.5862Z" fill="#F55349"/>
<g style="mix-blend-mode:multiply" opacity="0.36">
<path d="M19.0196 29.5862C18.8296 29.4187 18.8696 29.1131 19.0996 29.0047L45.5996 17.0886C46.2796 16.7831 47.0596 17.266 47.0596 17.9954V18.3502L19.0696 29.6355L19.0096 29.5862H19.0196Z" fill="#F55349"/>
</g>
<path d="M22.0698 27.6742V31.7645C22.0698 32.3066 22.5198 32.7501 23.0698 32.7501H23.8198C24.3698 32.7501 24.8198 32.3066 24.8198 31.7645V26.4323L22.0698 27.6742Z" fill="#FFC34F"/>
<path d="M24.8201 26.4323V30.6606C24.8201 31.2027 25.2701 31.6364 25.8101 31.6364H26.5801C27.1301 31.6364 27.5701 31.1929 27.5701 30.6606V25.1905L24.8101 26.4323H24.8201Z" fill="#FFC34F"/>
<g style="mix-blend-mode:multiply" opacity="0.4">
<path d="M24.8201 26.4323V30.6606C24.8201 31.2027 25.2701 31.6364 25.8101 31.6364H26.5801C27.1301 31.6364 27.5701 31.1929 27.5701 30.6606V25.1905L24.8101 26.4323H24.8201Z" fill="#FFC34F"/>
</g>
<path d="M27.5698 25.1905V40.9505H30.3098V23.9585L27.5698 25.2003V25.1905Z" fill="#FFC34F"/>
<path d="M31.3298 31.666H32.0698C32.6298 31.666 33.0798 31.2224 33.0798 30.6705V22.7166L30.3198 23.9584V30.6705C30.3198 31.2224 30.7698 31.666 31.3298 31.666Z" fill="#FFC34F"/>
<g style="mix-blend-mode:multiply" opacity="0.4">
<path d="M31.3298 31.666H32.0698C32.6298 31.666 33.0798 31.2224 33.0798 30.6705V22.7166L30.3198 23.9584V30.6705C30.3198 31.2224 30.7698 31.666 31.3298 31.666Z" fill="#FFC34F"/>
</g>
<path d="M30.3198 23.9584V27.6052C30.3198 28.1473 30.7698 28.5908 31.3198 28.5908H32.0598C32.6098 28.5908 33.0598 28.1473 33.0598 27.6052V22.7166L30.3198 23.9584Z" fill="#FFC34F"/>
<path d="M30.9875 51.8946C23.0375 51.8946 16.5275 45.6846 15.9975 38.0146C15.9575 37.4646 16.4375 37.0046 16.9975 37.0046H44.9974C45.5674 37.0046 46.0375 37.4646 45.9974 38.0146C45.4674 45.6846 38.9575 51.9046 30.9975 51.9046L30.9875 51.8946Z" fill="#F55349"/>
<g style="mix-blend-mode:multiply" opacity="0.36">
<path d="M25.2275 37.1746V37.0046H16.9975C16.4375 37.0046 15.9575 37.4646 15.9975 38.0146C16.5275 45.6846 23.0375 51.9046 30.9875 51.9046C32.6075 51.9046 34.1575 51.6446 35.6175 51.1846C29.5975 49.2746 25.2275 43.7246 25.2275 37.1746Z" fill="#F55349"/>
</g>
<path d="M36.9976 50.6747H24.9976V53.0347C24.9976 53.5747 25.4476 54.0047 25.9976 54.0047H36.0076C36.5576 54.0047 37.0076 53.5647 37.0076 53.0347V50.6747H36.9976Z" fill="#6BB229"/>
<g style="mix-blend-mode:multiply" opacity="0.26">
<path d="M28.5676 50.6747H24.9976V53.0347C24.9976 53.5747 25.4476 54.0047 25.9976 54.0047H30.2676L28.5676 50.6747Z" fill="#6BB229"/>
</g>
<path d="M44.7776 43.0746C45.1976 42.1246 45.5276 41.1246 45.7376 40.0846H16.2676C16.4776 41.1246 16.7976 42.1246 17.2276 43.0746H44.7776Z" fill="#FFC34F"/>
<g style="mix-blend-mode:multiply" opacity="0.4">
<path d="M26.4876 43.0746C26.0676 42.1246 25.7376 41.1246 25.5276 40.0846H16.2676C16.4576 40.9946 16.7276 41.8746 17.0776 42.7146C17.1276 42.8346 17.1776 42.9546 17.2276 43.0646H26.4876V43.0746Z" fill="#FFC34F"/>
</g>
</g>
<defs>
<clipPath id="clip0_341_17092">
<rect width="64" height="64" fill="white"/>
</clipPath>
</defs>
</svg>
