<svg width="64" height="64" viewBox="0 0 64 64" fill="none" xmlns="http://www.w3.org/2000/svg">
<g clip-path="url(#clip0_341_17427)">
<circle opacity="0.1" cx="32" cy="32" r="18" fill="#F55349"/>
<ellipse opacity="0.14" cx="32" cy="54.65" rx="25" ry="1.65" fill="#F55349"/>
<path d="M12.0098 45.9853C12.0098 45.9853 14.3622 29.8862 31.4098 29.8862C48.4574 29.8862 51 45.9853 51 45.9853H12.0098Z" fill="#FFC34F"/>
<path d="M20.8737 39.4194C23.2811 39.4194 25.2327 37.4552 25.2327 35.0323C25.2327 32.6093 23.2811 30.6452 20.8737 30.6452C18.4662 30.6452 16.5146 32.6093 16.5146 35.0323C16.5146 37.4552 18.4662 39.4194 20.8737 39.4194Z" fill="#F55349"/>
<g style="mix-blend-mode:multiply" opacity="0.26">
<path d="M20.8735 36.9125C21.9053 36.9125 22.7417 36.0707 22.7417 35.0323C22.7417 33.9939 21.9053 33.1521 20.8735 33.1521C19.8418 33.1521 19.0054 33.9939 19.0054 35.0323C19.0054 36.0707 19.8418 36.9125 20.8735 36.9125Z" fill="#F55349"/>
</g>
<path fill-rule="evenodd" clip-rule="evenodd" d="M25.6997 39.1542C23.4864 40.1239 20.9966 41.9204 19.7556 44.4332H14.0238C14.0248 44.0684 14.1079 43.7086 14.2668 43.3803C14.4257 43.0521 14.6563 42.7638 14.9417 42.5368C14.7433 42.1813 14.6378 41.7815 14.6351 41.3744C14.6363 40.8316 14.8181 40.3046 15.1519 39.8767C15.4858 39.4488 15.9526 39.1442 16.4786 39.0112C16.4786 38.9973 16.4765 38.9836 16.4744 38.9696L16.4744 38.9696C16.4723 38.9553 16.4701 38.9407 16.4701 38.9255C16.465 38.5459 16.5495 38.1705 16.7166 37.8297C16.8838 37.4888 17.1289 37.1922 17.432 36.9639C17.7352 36.7355 18.0879 36.5818 18.4615 36.5154C18.8351 36.4489 19.2192 36.4714 19.5825 36.5812C19.6991 36.0329 20.0003 35.5413 20.4357 35.1885C20.8712 34.8357 21.4144 34.643 21.9748 34.6428C22.2006 34.646 22.4248 34.6809 22.6409 34.7464C22.7574 34.1983 23.0585 33.7068 23.4938 33.3542C23.9291 33.0015 24.4722 32.809 25.0324 32.8089C25.2587 32.8121 25.4833 32.8471 25.6997 32.9129V39.1542Z" fill="#FFC34F"/>
<path d="M45.7045 40.7512C43.2971 40.7512 41.3455 38.787 41.3455 36.3641C41.3455 33.9411 43.2971 31.977 45.7045 31.977C48.1119 31.977 50.0635 33.9411 50.0635 36.3641C50.0635 38.787 48.1119 40.7512 45.7045 40.7512Z" fill="#6BB229"/>
<g style="mix-blend-mode:multiply" opacity="0.36">
<path d="M45.7045 40.7512C43.2971 40.7512 41.3455 38.787 41.3455 36.3641C41.3455 33.9411 43.2971 31.977 45.7045 31.977C48.1119 31.977 50.0635 33.9411 50.0635 36.3641C50.0635 38.787 48.1119 40.7512 45.7045 40.7512Z" fill="#6BB229"/>
</g>
<g style="mix-blend-mode:multiply" opacity="0.26">
<path d="M45.7041 38.2443C44.6724 38.2443 43.836 37.4025 43.836 36.3641C43.836 35.3257 44.6724 34.4839 45.7041 34.4839C46.7359 34.4839 47.5723 35.3257 47.5723 36.3641C47.5723 37.4025 46.7359 38.2443 45.7041 38.2443Z" fill="#6BB229"/>
</g>
<path d="M41.8119 37.7742C39.4045 37.7742 37.4529 35.81 37.4529 33.3871C37.4529 30.9642 39.4045 29 41.8119 29C44.2193 29 46.1709 30.9642 46.1709 33.3871C46.1709 35.81 44.2193 37.7742 41.8119 37.7742Z" fill="#6BB229"/>
<g style="mix-blend-mode:multiply" opacity="0.26">
<path d="M41.812 35.2673C40.7803 35.2673 39.9439 34.4255 39.9439 33.3871C39.9439 32.3487 40.7803 31.5069 41.812 31.5069C42.8438 31.5069 43.6802 32.3487 43.6802 33.3871C43.6802 34.4255 42.8438 35.2673 41.812 35.2673Z" fill="#6BB229"/>
</g>
<path fill-rule="evenodd" clip-rule="evenodd" d="M35.3516 39.1542C37.5648 40.1239 40.0547 41.9204 41.2957 44.4332H47.0275C47.0264 44.0684 46.9434 43.7086 46.7845 43.3803C46.6256 43.0521 46.395 42.7638 46.1096 42.5368C46.308 42.1813 46.4135 41.7815 46.4161 41.3744C46.415 40.8316 46.2331 40.3046 45.8993 39.8767C45.5655 39.4488 45.0987 39.1442 44.5727 39.0112C44.5727 38.9973 44.5747 38.9836 44.5768 38.9696L44.5768 38.9696C44.579 38.9553 44.5812 38.9407 44.5812 38.9255C44.5862 38.5459 44.5018 38.1705 44.3346 37.8297C44.1675 37.4888 43.9224 37.1922 43.6192 36.9639C43.3161 36.7355 42.9634 36.5818 42.5898 36.5154C42.2161 36.4489 41.8321 36.4714 41.4688 36.5812C41.3522 36.0329 41.0509 35.5413 40.6155 35.1885C40.1801 34.8357 39.6368 34.643 39.0765 34.6428C38.8507 34.646 38.6265 34.6809 38.4103 34.7464C38.2938 34.1983 37.9928 33.7068 37.5575 33.3542C37.1222 33.0015 36.579 32.809 36.0189 32.8089C35.7926 32.8121 35.568 32.8471 35.3516 32.9129V39.1542Z" fill="#FFC34F"/>
<g style="mix-blend-mode:multiply" opacity="0.4">
<path d="M36.9864 30.5933C35.3074 30.1612 33.4484 29.9401 31.3695 29.9401C14.3687 29.9401 12 46 12 46H21.4449C21.4449 46 22.0146 30.5933 36.9864 30.5933Z" fill="#FFC34F"/>
</g>
<g style="mix-blend-mode:multiply" opacity="0.6">
<path d="M37.5235 39.5347L36.2638 39.3829C35.9839 39.3525 35.784 39.069 35.8239 38.7551C35.8539 38.4412 36.1039 38.2083 36.3738 38.2488L37.6335 38.4007C37.9134 38.4311 38.1134 38.7146 38.0734 39.0285C38.0434 39.3424 37.7935 39.5752 37.5235 39.5347Z" fill="#FFC34F"/>
</g>
<g style="mix-blend-mode:multiply" opacity="0.6">
<path d="M29.4875 39.4154L28.2728 39.7838C28.0042 39.8687 27.7082 39.6895 27.62 39.3857C27.5226 39.086 27.659 38.7719 27.9225 38.7003L29.1372 38.3319C29.4058 38.2469 29.7018 38.4262 29.79 38.7299C29.8874 39.0296 29.751 39.3437 29.4875 39.4154Z" fill="#FFC34F"/>
</g>
<g style="mix-blend-mode:multiply" opacity="0.6">
<path d="M32.2207 40.4734L31.4008 41.6034C31.22 41.8483 30.8462 41.9236 30.5689 41.7635C30.2916 41.6034 30.2072 41.2738 30.3881 41.029L31.2079 39.899C31.3888 39.6541 31.7626 39.5788 32.0399 39.7389C32.3172 39.899 32.4016 40.2285 32.2207 40.4734Z" fill="#FFC34F"/>
</g>
<g style="mix-blend-mode:multiply" opacity="0.6">
<path d="M34.3882 41.4536L33.1313 40.9634C32.8609 40.8551 32.7344 40.5529 32.8645 40.2702C32.9994 39.9954 33.3188 39.8586 33.5892 39.9669L34.8461 40.4572C35.1165 40.5655 35.243 40.8676 35.1129 41.1503C34.9827 41.4331 34.6586 41.5619 34.3882 41.4536Z" fill="#FFC34F"/>
</g>
<g style="mix-blend-mode:multiply" opacity="0.6">
<path d="M25.9525 40.9624L24.8128 40.3447C24.5628 40.2131 24.4629 39.8688 24.5828 39.5853C24.7028 39.3018 25.0027 39.1803 25.2527 39.3221L26.3924 39.9397C26.6423 40.0714 26.7423 40.4156 26.6223 40.6991C26.4923 40.9725 26.2024 41.1041 25.9525 40.9624Z" fill="#FFC34F"/>
</g>
<g style="mix-blend-mode:multiply" opacity="0.6">
<path d="M23.6871 36.1042L22.4008 36.4973C22.1185 36.5847 21.8257 36.4209 21.7525 36.126C21.6688 35.8421 21.8257 35.5253 22.108 35.4489L23.3943 35.0558C23.6767 34.9684 23.9695 35.1322 24.0427 35.4271C24.1264 35.711 23.9695 36.0168 23.6871 36.1042Z" fill="#FFC34F"/>
</g>
<g style="mix-blend-mode:multiply" opacity="0.6">
<path d="M19.9927 39.6017L20.9111 38.466C21.1087 38.2162 21.4807 38.1708 21.7365 38.3638C21.9922 38.5569 22.0387 38.9089 21.8411 39.1588L20.9227 40.2944C20.7251 40.5442 20.3531 40.5896 20.0973 40.3966C19.83 40.2149 19.7835 39.8515 19.9927 39.6017Z" fill="#FFC34F"/>
</g>
<g style="mix-blend-mode:multiply" opacity="0.6">
<path d="M29.1116 37.2241L27.6894 37.0529C27.3846 37.0162 27.1476 36.7226 27.1814 36.3678C27.2153 36.0375 27.4862 35.7929 27.8135 35.8174L29.2358 35.9886C29.5405 36.0253 29.7776 36.3189 29.7437 36.6737C29.6985 37.0039 29.4276 37.2486 29.1116 37.2241Z" fill="#FFC34F"/>
</g>
<g style="mix-blend-mode:multiply" opacity="0.6">
<path d="M32.3704 36.771L33.7252 36.2462C34.03 36.1269 34.3461 36.2939 34.459 36.5921C34.5719 36.9022 34.4138 37.248 34.1316 37.3673L32.7768 37.8921C32.472 38.0114 32.1558 37.8444 32.0429 37.5462C31.93 37.2361 32.0768 36.8902 32.3704 36.771Z" fill="#FFC34F"/>
</g>
<path d="M44.8604 50.9H18.1304L20.2204 53.45C20.5104 53.8 20.9304 54 21.3904 54H41.6004C42.0504 54 42.4804 53.8 42.7704 53.45L44.8604 50.9Z" fill="#6BB229"/>
<g style="mix-blend-mode:multiply" opacity="0.26">
<path d="M44.8604 50.9H18.1304L20.2204 53.45C20.5104 53.8 20.9304 54 21.3904 54H41.6004C42.0504 54 42.4804 53.8 42.7704 53.45L44.8604 50.9Z" fill="#6BB229"/>
</g>
<path d="M47.7602 50.9H15.2302C13.1902 50.9 11.4702 49.28 11.0202 47.12C10.9002 46.54 11.3602 46 11.9302 46H51.0702C51.6402 46 52.1002 46.54 51.9802 47.12C51.5302 49.28 49.8102 50.9 47.7602 50.9Z" fill="#6BB229"/>
<g style="mix-blend-mode:multiply" opacity="0.26">
<path d="M24.6499 46H11.9399C11.3699 46 10.9099 46.54 11.0299 47.12C11.4799 49.28 13.1999 50.9 15.2399 50.9H28.9699C26.5799 50.9 24.6399 48.7 24.6399 46H24.6499Z" fill="#6BB229"/>
</g>
</g>
<defs>
<clipPath id="clip0_341_17427">
<rect width="64" height="64" fill="white"/>
</clipPath>
</defs>
</svg>
