<svg width="64" height="64" viewBox="0 0 64 64" fill="none" xmlns="http://www.w3.org/2000/svg">
<ellipse opacity="0.14" cx="32" cy="54.65" rx="25" ry="1.65" fill="#F55349"/>
<path d="M24.4847 28.0243C23.8076 27.2136 22.8665 26.6675 21.8266 26.4821C20.7868 26.2966 19.7149 26.4836 18.7993 27.0102C17.8837 27.5368 17.183 28.3692 16.8203 29.3613C16.4577 30.3533 16.4563 31.4414 16.8165 32.4343C17.1767 33.4273 17.8753 34.2615 18.7896 34.7903C19.7039 35.3192 20.7754 35.5088 21.8156 35.3259C22.8559 35.1431 23.7985 34.5993 24.4776 33.7904C25.1567 32.9814 25.5289 31.9589 25.5288 30.9027C25.5297 29.8504 25.16 28.8313 24.4847 28.0243ZM21.0381 33.3975C20.5449 33.3974 20.0628 33.251 19.6528 32.9769C19.2428 32.7028 18.9232 32.3132 18.7346 31.8576C18.5459 31.4019 18.4966 30.9005 18.5928 30.4167C18.6891 29.933 18.9266 29.4887 19.2754 29.1399C19.6241 28.7912 20.0684 28.5537 20.5521 28.4574C21.0359 28.3612 21.5373 28.4105 21.993 28.5992C22.4486 28.7878 22.8382 29.1074 23.1123 29.5174C23.3864 29.9274 23.5328 30.4095 23.5329 30.9027C23.5329 31.5644 23.2701 32.1989 22.8022 32.6668C22.3343 33.1347 21.6998 33.3975 21.0381 33.3975Z" fill="#FFC34F"/>
<g style="mix-blend-mode:multiply" opacity="0.36">
<path d="M25.5291 30.9027C25.529 31.9612 25.155 32.9855 24.4731 33.7951C23.7913 34.6047 22.8455 35.1475 21.8025 35.3277C20.7595 35.5079 19.6863 35.314 18.7724 34.7801C17.8584 34.2462 17.1624 33.4066 16.8071 32.4096C17.4234 32.1643 18.0365 31.8986 18.6465 31.6125C18.7532 31.973 18.9401 32.3047 19.1931 32.5828C19.446 32.8609 19.7586 33.0783 20.1074 33.2186C20.4562 33.359 20.8322 33.4186 21.2073 33.3932C21.5825 33.3678 21.947 33.2579 22.2737 33.0718C22.6003 32.8857 22.8807 32.6281 23.0939 32.3184C23.307 32.0087 23.4474 31.6548 23.5045 31.2832C23.5616 30.9116 23.534 30.5319 23.4238 30.1724C23.3135 29.813 23.1234 29.4831 22.8677 29.2074C23.416 28.8351 23.9551 28.4407 24.485 28.0243C25.1609 28.831 25.5306 29.8502 25.5291 30.9027Z" fill="#FFC34F"/>
</g>
<path d="M44.2513 24.3821C43.5742 23.5714 42.6331 23.0254 41.5932 22.8399C40.5534 22.6545 39.4815 22.8414 38.5659 23.368C37.6503 23.8946 36.9496 24.7271 36.5869 25.7191C36.2243 26.7111 36.2229 27.7992 36.5831 28.7922C36.9433 29.7851 37.6419 30.6193 38.5562 31.1482C39.4705 31.677 40.542 31.8667 41.5822 31.6838C42.6225 31.5009 43.5651 30.9572 44.2442 30.1482C44.9233 29.3392 45.2955 28.3168 45.2954 27.2605C45.2963 26.2082 44.9266 25.1892 44.2513 24.3821ZM40.8047 29.7554C40.3115 29.7552 39.8294 29.6088 39.4194 29.3347C39.0094 29.0606 38.6898 28.6711 38.5012 28.2154C38.3125 27.7597 38.2632 27.2583 38.3594 26.7746C38.4557 26.2909 38.6932 25.8465 39.042 25.4978C39.3907 25.149 39.835 24.9115 40.3187 24.8153C40.8025 24.719 41.3039 24.7683 41.7596 24.957C42.2152 25.1457 42.6048 25.4652 42.8789 25.8752C43.153 26.2852 43.2994 26.7673 43.2995 27.2605C43.2995 27.9222 43.0367 28.5568 42.5688 29.0247C42.1009 29.4925 41.4664 29.7554 40.8047 29.7554Z" fill="#FFC34F"/>
<g style="mix-blend-mode:multiply" opacity="0.36">
<path d="M45.2957 27.2605C45.2956 28.319 44.9216 29.3434 44.2397 30.153C43.5579 30.9626 42.6121 31.5054 41.5691 31.6856C40.5261 31.8658 39.4529 31.6718 38.539 31.1379C37.625 30.604 36.929 29.7645 36.5737 28.7674C37.19 28.5221 37.8031 28.2564 38.4131 27.9703C38.5198 28.3308 38.7067 28.6625 38.9597 28.9407C39.2126 29.2188 39.5252 29.4361 39.874 29.5765C40.2228 29.7168 40.5988 29.7765 40.9739 29.7511C41.3491 29.7256 41.7136 29.6158 42.0403 29.4296C42.3669 29.2435 42.6473 28.986 42.8605 28.6763C43.0736 28.3665 43.214 28.0126 43.2711 27.641C43.3282 27.2694 43.3006 26.8897 43.1904 26.5303C43.0801 26.1708 42.89 25.8409 42.6343 25.5653C43.1826 25.1929 43.7217 24.7985 44.2516 24.3821C44.9275 25.1888 45.2972 26.2081 45.2957 27.2605Z" fill="#FFC34F"/>
</g>
<path d="M32.2499 21.9244C32.0301 21.7657 31.7249 21.8329 31.5906 22.0649C30.4794 24.0124 30.9861 26.5217 32.8421 27.8648C34.692 29.2141 37.2379 28.9271 38.7459 27.2726C38.9291 27.0773 38.8985 26.7598 38.6787 26.6072L32.2499 21.9244Z" fill="#F55349"/>
<g style="mix-blend-mode:multiply" opacity="0.46">
<path d="M33.7617 26.3939C33.609 26.284 33.5724 26.0704 33.6884 25.9177L34.2501 25.1485C34.36 24.9958 34.5737 24.9592 34.7263 25.0752C34.8789 25.1851 34.9156 25.3988 34.7996 25.5514L34.2379 26.3207C34.128 26.4733 33.9143 26.5038 33.7617 26.3939Z" fill="#F55349"/>
</g>
<g style="mix-blend-mode:multiply" opacity="0.46">
<path d="M36.1245 27.7737C35.9413 27.7249 35.8314 27.5356 35.8803 27.3524L36.1245 26.4306C36.1733 26.2474 36.3626 26.1375 36.5457 26.1863C36.7289 26.2352 36.8388 26.4245 36.7899 26.6076L36.5457 27.5295C36.4908 27.7127 36.3015 27.8226 36.1245 27.7737Z" fill="#F55349"/>
</g>
<g style="mix-blend-mode:multiply" opacity="0.46">
<path d="M31.9483 24.7333C32.0521 24.892 32.2658 24.9409 32.4245 24.8371L33.2243 24.3243C33.383 24.2205 33.4319 24.0068 33.3281 23.848C33.2243 23.6893 33.0106 23.6405 32.8519 23.7443L32.0521 24.2632C31.8934 24.3609 31.8445 24.5746 31.9483 24.7333Z" fill="#F55349"/>
</g>
<path d="M30.6563 35.5779C30.2245 35.4857 29.9098 35.0853 29.9241 34.644C29.944 34.0286 29.7965 33.5645 29.4601 33.323C29.1643 33.1112 28.7509 33.0929 28.2643 33.2391C27.8243 33.3714 27.3281 33.1698 27.128 32.7562C26.8467 32.1747 26.4848 31.8177 26.0594 31.7661C25.5673 31.7058 25.0576 32.0619 24.5893 32.7246C24.3373 33.0811 23.8438 33.1987 23.4721 32.9697C22.2379 32.2095 21.1447 31.9849 20.5098 32.4804C19.8744 32.9763 19.8291 34.0927 20.2701 35.4748C20.4026 35.8897 20.1709 36.3396 19.7652 36.4981C19.0079 36.794 18.5371 37.2017 18.4767 37.6943C18.4251 38.1204 18.683 38.5587 19.1819 38.9728C19.5353 39.266 19.613 39.7952 19.3787 40.1901C19.1184 40.6286 19.0366 41.0333 19.1727 41.3697C19.3242 41.7547 19.7393 42.011 20.3443 42.1407C20.7744 42.2329 21.0864 42.6323 21.0716 43.072C21.0507 43.6898 21.1981 44.1557 21.5354 44.3979C21.814 44.5974 22.1945 44.6271 22.6442 44.5081C23.0282 44.4065 23.4417 44.5566 23.6991 44.8593C23.909 45.1063 24.1468 45.2562 24.411 45.2892C25.0329 45.3657 25.6845 44.774 26.2452 43.738C26.4368 43.384 26.8665 43.2286 27.2515 43.3461C27.9291 43.5528 28.5061 43.5226 28.8984 43.2134C29.2961 42.9036 29.4626 42.3484 29.4244 41.6383C29.4029 41.2381 29.6557 40.8603 30.0436 40.7595C31.184 40.4633 31.9172 39.9764 31.9937 39.3488C32.0266 39.0855 31.9412 38.8178 31.7533 38.5549C31.521 38.23 31.4701 37.79 31.6613 37.4394C31.883 37.0329 31.947 36.6578 31.8228 36.3389C31.6678 35.9601 31.2547 35.7057 30.6563 35.5779Z" fill="#6BB229"/>
<path d="M37.5992 30.2326C37.1878 30.1506 36.8883 29.7695 36.9068 29.3504C36.935 28.7138 36.7886 28.234 36.4444 27.987C36.14 27.769 35.7109 27.756 35.2057 27.9164C34.7896 28.0485 34.3173 27.8564 34.1319 27.4612C33.8479 26.8555 33.4791 26.4829 33.0438 26.4301C32.5433 26.3687 32.0246 26.7382 31.5497 27.4228C31.3134 27.7635 30.8437 27.8748 30.4917 27.6556C29.2431 26.8778 28.1351 26.6442 27.4941 27.1444C26.8528 27.645 26.8126 28.7779 27.2671 30.1781C27.3949 30.5716 27.1751 30.9998 26.7884 31.1471C26.0084 31.4441 25.5225 31.8573 25.4611 32.3583C25.4082 32.7943 25.6794 33.243 26.2014 33.6655C26.5404 33.94 26.6147 34.4439 26.3863 34.8156C26.1078 35.2689 26.017 35.6875 26.1571 36.0337C26.312 36.4275 26.7426 36.6866 27.37 36.8133C27.7796 36.8961 28.0766 37.2763 28.0576 37.6938C28.0285 38.3326 28.1748 38.8142 28.5198 39.0619C28.8056 39.2666 29.1986 39.2925 29.6635 39.1626C30.027 39.061 30.4212 39.2033 30.6602 39.4954C30.8758 39.759 31.1214 39.919 31.3954 39.9532C32.0238 40.0305 32.6826 39.4255 33.2472 38.3692C33.4274 38.032 33.836 37.8841 34.2007 37.9992C34.8935 38.2177 35.4837 38.192 35.8827 37.8775C36.2826 37.5623 36.4505 36.9934 36.4059 36.2658C36.3827 35.8858 36.6232 35.5266 36.9922 35.4327C38.153 35.1374 38.9008 34.647 38.9781 34.0128C39.0122 33.7396 38.9191 33.4617 38.7161 33.1894C38.4894 32.8851 38.4418 32.4659 38.628 32.1353C38.8639 31.7166 38.9346 31.3302 38.8072 31.0029C38.6527 30.6146 38.2239 30.3571 37.5992 30.2326Z" fill="#6BB229"/>
<g style="mix-blend-mode:multiply" opacity="0.46">
<path d="M37.6409 30.2411C37.2089 30.1496 36.8942 29.7492 36.9085 29.3079C36.9284 28.6925 36.7809 28.2285 36.4444 27.987C36.1487 27.7752 35.7353 27.7569 35.2487 27.9031C34.8086 28.0354 34.3125 27.8338 34.1124 27.4202C33.8311 26.8387 33.4692 26.4817 33.0438 26.4301C32.5517 26.3698 32.042 26.726 31.5737 27.3886C31.3217 27.7451 30.8281 27.8627 30.4565 27.6337C29.2223 26.8735 28.1291 26.6489 27.4941 27.1444C26.8588 27.6403 26.8134 28.7567 27.2545 30.1388C27.3869 30.5537 27.1553 31.0036 26.7496 31.1621C25.9923 31.458 25.5215 31.8657 25.4611 32.3583C25.4094 32.7844 25.6673 33.2227 26.1663 33.6368C26.5197 33.93 26.5974 34.4592 26.3631 34.8541C26.1028 35.2926 26.0209 35.6973 26.1571 36.0337C26.3085 36.4188 26.7237 36.675 27.3286 36.8047C27.7588 36.8969 28.0708 37.2963 28.0559 37.736C28.0351 38.3538 28.1825 38.8197 28.5198 39.0619C28.7984 39.2614 29.1789 39.2911 29.6285 39.1721C30.0126 39.0705 30.4261 39.2206 30.6835 39.5233C30.8934 39.7703 31.1312 39.9202 31.3954 39.9532C32.0173 40.0297 32.6689 39.438 33.2296 38.402C33.4211 38.048 33.8509 37.8926 34.2359 38.0101C34.9134 38.2168 35.4905 38.1866 35.8827 37.8775C36.2758 37.5676 36.4447 37.0125 36.408 36.3024C36.3873 35.9021 36.64 35.5243 37.0279 35.4235C38.1684 35.1273 38.9016 34.6404 38.9781 34.0128C39.011 33.7495 38.9256 33.4818 38.7377 33.2189C38.5054 32.894 38.4545 32.454 38.6457 32.1034C38.8674 31.6969 38.9314 31.3218 38.8072 31.0029C38.6562 30.6233 38.243 30.3686 37.6409 30.2411Z" fill="#6BB229"/>
</g>
<path d="M44.2072 40.2806C44.2473 39.8412 44.6052 39.4804 45.0447 39.4411C45.6577 39.3865 46.1 39.1844 46.2985 38.8177C46.4743 38.498 46.4435 38.0868 46.2386 37.6217C46.053 37.2004 46.1926 36.6823 46.5793 36.4326C47.1203 36.0832 47.4279 35.6813 47.4279 35.2522C47.4279 34.7545 47.0097 34.2922 46.2921 33.9058C45.9089 33.6995 45.7337 33.2255 45.915 32.8299C46.5185 31.513 46.6102 30.3979 46.042 29.8246C45.4736 29.2562 44.3586 29.3439 43.0374 29.9505C42.6416 30.1323 42.1669 29.9571 41.9604 29.5737C41.5741 28.8566 41.112 28.4388 40.6145 28.4388C40.1843 28.4388 39.7815 28.7479 39.4315 29.2913C39.1831 29.6771 38.6675 29.8177 38.2474 29.6333C37.7813 29.4287 37.3692 29.3961 37.049 29.5682C36.6856 29.7672 36.4817 30.2114 36.4262 30.827C36.3867 31.2647 36.0288 31.6227 35.5909 31.6611C34.9754 31.7152 34.5312 31.9174 34.3322 32.2851C34.1669 32.5866 34.1834 32.9664 34.3531 33.3942C34.5006 33.7658 34.3991 34.1975 34.1294 34.4925C33.9125 34.7298 33.7949 34.9836 33.7949 35.2461C33.7949 35.8732 34.4634 36.4493 35.5586 36.8817C35.9323 37.0293 36.1379 37.4363 36.0673 37.8318C35.9431 38.5287 36.0403 39.0971 36.3958 39.4526C36.7512 39.8081 37.3196 39.9052 38.0165 39.781C38.4121 39.7105 38.819 39.916 38.9663 40.2899C39.3975 41.385 39.9701 42.0534 40.6023 42.0534C40.8656 42.0534 41.1201 41.9352 41.358 41.717C41.6518 41.4475 42.0818 41.3453 42.4521 41.4928C42.8839 41.6648 43.2645 41.6822 43.5633 41.5162C43.9427 41.3265 44.1516 40.8903 44.2072 40.2806Z" fill="#6BB229"/>
<path d="M38.6561 33.7579C37.9177 32.8738 36.8913 32.2783 35.7573 32.076C34.6233 31.8738 33.4543 32.0777 32.4558 32.652C31.4573 33.2262 30.6931 34.1341 30.2977 35.2159C29.9022 36.2978 29.9007 37.4844 30.2935 38.5673C30.6863 39.6501 31.4482 40.5599 32.4453 41.1366C33.4424 41.7133 34.6109 41.9202 35.7453 41.7207C36.8798 41.5213 37.9077 40.9283 38.6483 40.0461C39.3889 39.1639 39.7948 38.0488 39.7947 36.8969C39.7957 35.7493 39.3926 34.638 38.6561 33.7579ZM34.8974 39.6177C34.3595 39.6175 33.8338 39.4579 33.3866 39.159C32.9395 38.86 32.591 38.4352 32.3852 37.9383C32.1795 37.4413 32.1257 36.8945 32.2307 36.367C32.3357 35.8395 32.5947 35.3549 32.975 34.9746C33.3553 34.5943 33.8399 34.3352 34.3674 34.2303C34.8949 34.1253 35.4417 34.1791 35.9387 34.3848C36.4357 34.5906 36.8605 34.939 37.1594 35.3862C37.4583 35.8333 37.618 36.3591 37.6181 36.8969C37.6181 37.6185 37.3315 38.3106 36.8212 38.8208C36.311 39.3311 35.619 39.6177 34.8974 39.6177Z" fill="#FFC34F"/>
<g style="mix-blend-mode:multiply" opacity="0.36">
<path d="M39.795 36.897C39.7948 38.0513 39.387 39.1684 38.6434 40.0513C37.8998 40.9342 36.8683 41.5261 35.7309 41.7227C34.5934 41.9192 33.4231 41.7077 32.4264 41.1254C31.4297 40.5432 30.6707 39.6276 30.2832 38.5403C30.9552 38.2728 31.6239 37.983 32.2891 37.671C32.4055 38.0642 32.6093 38.4259 32.8852 38.7292C33.1611 39.0325 33.5019 39.2696 33.8823 39.4226C34.2627 39.5756 34.6728 39.6407 35.0819 39.613C35.4909 39.5853 35.8885 39.4654 36.2447 39.2625C36.601 39.0595 36.9068 38.7786 37.1392 38.4409C37.3716 38.1031 37.5247 37.7172 37.587 37.3119C37.6493 36.9066 37.6192 36.4925 37.499 36.1005C37.3787 35.7085 37.1714 35.3488 36.8926 35.0482C37.4905 34.6421 38.0784 34.212 38.6563 33.7579C39.3934 34.6377 39.7966 35.7492 39.795 36.897Z" fill="#FFC34F"/>
</g>
<path d="M22.1705 22.6632C21.9324 22.7853 21.853 23.0905 21.9995 23.3103C23.2328 25.1785 25.6993 25.8684 27.7385 24.8244C29.7776 23.7865 30.6751 21.3872 29.8936 19.2931C29.802 19.0428 29.509 18.9268 29.2648 19.0489L22.1705 22.6632Z" fill="#F55349"/>
<g style="mix-blend-mode:multiply" opacity="0.46">
<path d="M26.9299 23.2262C26.7589 23.3116 26.5575 23.2445 26.472 23.0735L26.0385 22.2249C25.953 22.0539 26.0202 21.8525 26.1911 21.767C26.3621 21.6815 26.5636 21.7487 26.649 21.9196L27.0825 22.7683C27.168 22.9331 27.1008 23.1407 26.9299 23.2262Z" fill="#F55349"/>
</g>
<g style="mix-blend-mode:multiply" opacity="0.46">
<path d="M29.2253 21.7487C29.0971 21.8891 28.8834 21.9013 28.743 21.7731L28.0348 21.1381C27.8944 21.0099 27.8822 20.7963 28.0104 20.6558C28.1386 20.5154 28.3523 20.5032 28.4927 20.6314L29.2009 21.2664C29.3413 21.3885 29.3535 21.6083 29.2253 21.7487Z" fill="#F55349"/>
</g>
<g style="mix-blend-mode:multiply" opacity="0.46">
<path d="M24.6278 24.087C24.817 24.0687 24.9514 23.8977 24.933 23.7084L24.8354 22.7621C24.817 22.5729 24.6461 22.4386 24.4568 22.4569C24.2676 22.4752 24.1333 22.6461 24.1516 22.8354L24.2493 23.7817C24.2737 23.971 24.4385 24.1053 24.6278 24.087Z" fill="#F55349"/>
</g>
<path d="M18.0799 23.3042C17.8357 23.9087 17.1397 24.22 16.9077 24.3116C16.8589 24.3299 16.8101 24.3055 16.7917 24.2628C16.688 24.0308 16.4071 23.3226 16.6513 22.7242C16.8955 22.1259 17.5915 21.8085 17.8235 21.7169C17.8724 21.6986 17.9212 21.723 17.9395 21.7657C18.0433 21.9916 18.3242 22.6998 18.0799 23.3042Z" fill="#6BB229"/>
<path d="M34.4239 20.7461C34.5887 21.375 34.2224 22.0405 34.0881 22.2541C34.0636 22.2969 34.0087 22.3091 33.966 22.2847C33.7401 22.1626 33.0929 21.7657 32.9281 21.1369C32.7632 20.508 33.1295 19.8426 33.2639 19.6289C33.2883 19.5861 33.3432 19.5739 33.386 19.5984C33.6119 19.7205 34.259 20.1173 34.4239 20.7461Z" fill="#6BB229"/>
<path d="M20.7112 30.4229C20.8272 30.8686 20.5708 31.3387 20.4731 31.4914C20.4548 31.5219 20.4182 31.528 20.3877 31.5158C20.2289 31.4303 19.771 31.1495 19.655 30.7038C19.539 30.2581 19.7954 29.788 19.8931 29.6354C19.9114 29.6048 19.9481 29.5987 19.9786 29.6109C20.1373 29.6964 20.5891 29.9773 20.7112 30.4229Z" fill="#6BB229"/>
<path d="M23.2327 24.4276C23.1412 24.855 22.7199 25.1419 22.5734 25.2274C22.5429 25.2457 22.5062 25.2335 22.4879 25.2091C22.3902 25.0686 22.1277 24.6352 22.2193 24.2078C22.3109 23.7804 22.7321 23.4935 22.8786 23.408C22.9092 23.3897 22.9458 23.4019 22.9641 23.4263C23.0618 23.5668 23.3243 24.0002 23.2327 24.4276Z" fill="#6BB229"/>
<g style="mix-blend-mode:multiply" opacity="0.36">
<path d="M23.2327 24.4276C23.1412 24.855 22.7199 25.1419 22.5734 25.2274C22.5429 25.2457 22.5062 25.2335 22.4879 25.2091C22.3902 25.0686 22.1277 24.6352 22.2193 24.2078C22.3109 23.7804 22.7321 23.4935 22.8786 23.408C22.9092 23.3897 22.9458 23.4019 22.9641 23.4263C23.0618 23.5668 23.3243 24.0002 23.2327 24.4276Z" fill="#6BB229"/>
</g>
<path d="M41.9331 26.6133C41.7561 27.0162 41.286 27.2055 41.1211 27.2666C41.0906 27.2788 41.054 27.2604 41.0418 27.2299C40.9746 27.0712 40.8037 26.5889 40.9807 26.192C41.1578 25.7952 41.6279 25.5998 41.7927 25.5388C41.8232 25.5266 41.8599 25.5449 41.8721 25.5754C41.9392 25.7341 42.1102 26.2164 41.9331 26.6133Z" fill="#6BB229"/>
<g style="mix-blend-mode:multiply" opacity="0.36">
<path d="M41.9331 26.6133C41.7561 27.0162 41.286 27.2055 41.1211 27.2666C41.0906 27.2788 41.054 27.2604 41.0418 27.2299C40.9746 27.0712 40.8037 26.5889 40.9807 26.192C41.1578 25.7952 41.6279 25.5998 41.7927 25.5388C41.8232 25.5266 41.8599 25.5449 41.8721 25.5754C41.9392 25.7341 42.1102 26.2164 41.9331 26.6133Z" fill="#6BB229"/>
</g>
<path d="M47.5314 24.2261C47.0613 25.0259 46.0234 25.3312 45.6693 25.4105C45.6022 25.4289 45.535 25.3861 45.5106 25.319C45.4068 24.971 45.1565 23.9148 45.6266 23.115C46.0967 22.3152 47.1346 22.0099 47.4887 21.9306C47.5558 21.9122 47.623 21.955 47.6474 22.0221C47.7512 22.3701 48.0015 23.4263 47.5314 24.2261Z" fill="#6BB229"/>
<path d="M31.9899 51.8887C24.0399 51.8887 17.5299 45.6792 16.9999 38.0098C16.9599 37.4599 17.4399 36.9999 17.9999 36.9999H45.9999C46.5699 36.9999 47.0399 37.4599 46.9999 38.0098C46.4699 45.6792 39.9599 51.8987 31.9999 51.8987L31.9899 51.8887Z" fill="#F55349"/>
<g style="mix-blend-mode:multiply" opacity="0.36">
<path d="M26.2299 37.1699V36.9999H17.9999C17.4399 36.9999 16.9599 37.4599 16.9999 38.0098C17.5299 45.6792 24.0399 51.8987 31.9899 51.8987C33.6099 51.8987 35.1599 51.6388 36.6199 51.1788C30.5999 49.2689 26.2299 43.7194 26.2299 37.1699Z" fill="#F55349"/>
</g>
<path d="M38 50.6689H26V53.0287C26 53.5687 26.45 53.9986 27 53.9986H37.01C37.56 53.9986 38.01 53.5587 38.01 53.0287V50.6689H38Z" fill="#6BB229"/>
<g style="mix-blend-mode:multiply" opacity="0.26">
<path d="M29.57 50.6689H26V53.0287C26 53.5687 26.45 53.9986 27 53.9986H31.27L29.57 50.6689Z" fill="#6BB229"/>
</g>
<path d="M45.78 43.0694C46.2 42.1195 46.53 41.1195 46.74 40.0796H17.27C17.48 41.1195 17.8 42.1195 18.23 43.0694H45.78Z" fill="#FFC34F"/>
<g style="mix-blend-mode:multiply" opacity="0.4">
<path d="M27.49 43.0694C27.07 42.1195 26.74 41.1195 26.53 40.0796H17.27C17.46 40.9895 17.73 41.8695 18.08 42.7094C18.13 42.8294 18.18 42.9494 18.23 43.0594H27.49V43.0694Z" fill="#FFC34F"/>
</g>
</svg>
