<svg width="64" height="64" viewBox="0 0 64 64" fill="none" xmlns="http://www.w3.org/2000/svg">
<g clip-path="url(#clip0_341_17610)">
<ellipse opacity="0.14" cx="32" cy="54.65" rx="25" ry="1.65" fill="#F55349"/>
<circle opacity="0.1" cx="32" cy="32" r="18" fill="#F55349"/>
<path d="M46.5947 18.8C46.5047 18.8 46.4147 18.79 46.3347 18.76C46.0447 18.67 45.8247 18.47 45.7347 18.19L44.6747 15.15C44.5147 14.68 44.7647 14.18 45.2447 14.02C45.7247 13.87 49.4947 15.06 49.8047 15.44C50.1147 15.82 50.0347 16.38 49.6447 16.69L47.1447 18.6C46.9747 18.74 46.7847 18.8 46.5847 18.8H46.5947Z" fill="#FFC34F"/>
<g style="mix-blend-mode:multiply" opacity="0.36">
<path d="M46.5948 18.8C46.7948 18.8 46.9848 18.74 47.1548 18.6L49.6548 16.69C49.6548 16.69 49.6548 16.68 49.6648 16.68C48.4448 16.28 46.4448 15.86 44.9248 15.88L45.7248 18.2C45.8148 18.48 46.0348 18.68 46.3248 18.77C46.4048 18.8 46.4948 18.81 46.5848 18.81L46.5948 18.8Z" fill="#FFC34F"/>
</g>
<path d="M16.0299 48.75C15.8299 48.75 15.6399 48.69 15.4699 48.56C15.0799 48.25 13.8499 44.58 14.0099 44.11C14.1699 43.64 14.6899 43.4 15.1699 43.55L18.2899 44.58C18.5799 44.67 18.7899 44.89 18.8799 45.17C18.9699 45.45 18.9099 45.74 18.7199 45.97L16.7599 48.41C16.5599 48.64 16.2899 48.75 16.0299 48.75Z" fill="#FFC34F"/>
<g style="mix-blend-mode:multiply" opacity="0.36">
<path d="M18.7205 45.97C18.9005 45.74 18.9705 45.45 18.8805 45.17C18.7905 44.89 18.5805 44.67 18.2905 44.58L16.0005 43.82C15.5905 45.23 16.0505 47.17 16.8705 48.27L18.7205 45.96V45.97Z" fill="#FFC34F"/>
</g>
<path d="M48.2251 18.3C46.2548 16.38 43.0743 16.38 41.124 18.3C40.1038 19.3 39.6037 20.79 38.9536 22.04C36.9933 25.78 34.593 29.31 31.5525 32.26C29.6322 34.13 27.4418 35.7 25.1215 37.04C23.9413 37.72 22.7211 38.34 21.4809 38.91C20.3508 39.43 19.1606 39.75 18.2404 40.64C16.2701 42.56 16.2701 45.66 18.2404 47.57C19.8707 49.16 22.3311 49.43 24.2414 48.38L29.4922 46.01C36.7433 42.33 42.6442 36.55 46.3748 29.45C47.0649 28.13 47.695 26.78 48.3751 25.46C48.7651 24.7 49.2552 23.96 49.4953 23.14C49.6953 22.45 49.7453 21.72 49.6353 21.01C49.5553 20.5 49.3952 20.01 49.1552 19.55C49.0352 19.32 48.8952 19.1 48.7451 18.89C48.6651 18.78 48.5751 18.67 48.4851 18.57C48.4451 18.52 48.2751 18.28 48.2151 18.28L48.2251 18.3Z" fill="#F55349"/>
<g style="mix-blend-mode:multiply" opacity="0.4">
<path d="M46.1749 21.86C46.0749 22.06 45.9748 22.26 45.8748 22.46C45.5348 23.16 45.1847 23.86 44.8247 24.55C44.4946 25.18 44.2146 25.97 43.7845 26.54C43.0044 28.02 42.1643 29.47 41.2141 30.84C39.4538 33.37 37.3935 35.68 35.0932 37.72C32.7928 39.76 30.1924 41.56 27.452 43.02C27.2319 43.14 27.0119 43.25 26.7819 43.37L21.5311 45.74C20.1909 46.48 18.5606 46.55 17.1504 45.98C17.4004 46.55 17.7605 47.1 18.2406 47.57C19.8708 49.16 22.3312 49.43 24.2415 48.38L29.4923 46.01C36.7434 42.33 42.6443 36.55 46.3749 29.45C47.065 28.14 47.6851 26.79 48.3652 25.48C48.7553 24.73 49.2454 23.99 49.4954 23.18C49.7054 22.5 49.7554 21.77 49.6454 21.07C49.5654 20.56 49.4054 20.06 49.1653 19.6C49.0453 19.36 48.9053 19.14 48.7453 18.92C48.5853 18.7 48.3552 18.53 48.2152 18.32C47.7351 17.85 47.185 17.49 46.5849 17.25C46.765 17.32 46.875 18.18 46.905 18.35C46.975 18.74 46.985 19.14 46.955 19.54C46.885 20.36 46.5349 21.13 46.1649 21.87L46.1749 21.86Z" fill="#F55349"/>
</g>
</g>
<defs>
<clipPath id="clip0_341_17610">
<rect width="64" height="64" fill="white"/>
</clipPath>
</defs>
</svg>
