<svg width="64" height="64" viewBox="0 0 64 64" fill="none" xmlns="http://www.w3.org/2000/svg">
<g clip-path="url(#clip0_341_17563)">
<circle opacity="0.1" cx="32" cy="32" r="18" fill="#F55349"/>
<ellipse opacity="0.14" cx="32" cy="54.65" rx="25" ry="1.65" fill="#F55349"/>
<path d="M36.3374 22.6578H38.8999L41.6999 12H39.1499L36.3374 22.6578Z" fill="#FFC34F"/>
<g style="mix-blend-mode:multiply" opacity="0.36">
<path d="M36.3374 22.6578H38.8999L41.6999 12H39.1499L36.3374 22.6578Z" fill="#FFC34F"/>
</g>
<g style="mix-blend-mode:multiply" opacity="0.4">
<path d="M31.85 51.9669L27.625 54H40.425L36.2125 51.9669H31.85Z" fill="#F55349"/>
</g>
<path d="M31.85 51.9669L27.625 54H40.425L36.2125 51.9669H31.85Z" fill="#F55349"/>
<path d="M30.2625 23.8575C29.9625 23.8575 29.6625 23.6933 29.5 23.4029L27.6751 19.5514C27.4376 19.122 27.5876 18.5916 28.0001 18.3517C28.4251 18.1118 28.9501 18.2633 29.1876 18.68L31.0125 22.5315C31.25 22.9609 31.1 23.4913 30.6875 23.7312C30.5625 23.8196 30.4125 23.8575 30.2625 23.8575Z" fill="#6BB229"/>
<path d="M38.9248 22.7083L38.7498 24.5015C38.6123 25.9158 38.4123 27.3175 38.1123 28.7065C37.5873 31.0553 37.9748 33.5303 39.1998 35.6265L40.5373 37.8995C42.0873 40.5387 42.2748 43.7715 41.0498 46.5748C40.4748 47.8881 39.6123 49.0499 38.5373 49.9717L36.2123 51.9669H31.8498L29.5248 49.9717C28.4373 49.0499 27.5873 47.8755 27.0123 46.5748C25.7873 43.7715 25.9748 40.5387 27.5248 37.8995L28.8623 35.6265C30.0873 33.5303 30.4748 31.0553 29.9498 28.7065C29.6373 27.3175 29.4498 25.9158 29.3123 24.5015L29.1373 22.7083H38.9248Z" fill="#F55349"/>
<g style="mix-blend-mode:multiply" opacity="0.4">
<path d="M30.6501 46.5748C29.4251 43.7715 29.6126 40.5387 31.1626 37.8995L32.5001 35.6265C33.7251 33.5303 34.1126 31.0553 33.5876 28.7065C33.2751 27.3175 33.0876 25.9158 32.9501 24.5015L32.7751 22.7083H29.1251L29.3001 24.5015C29.4376 25.9158 29.6376 27.3175 29.9376 28.7065C30.4626 31.0553 30.0751 33.5303 28.8501 35.6265L27.5126 37.8995C25.9626 40.5387 25.7751 43.7715 27.0001 46.5748C27.5751 47.8881 28.4376 49.0499 29.5126 49.9717L31.8376 51.9669H35.4751L33.1501 49.9717C32.0751 49.0499 31.2126 47.8881 30.6501 46.5748Z" fill="#F55349"/>
</g>
<path d="M35.2 16.9131C33.7 15.8397 29.7375 13.9961 26.675 15.221C23.6125 16.4459 22.3625 20.3731 22 22.1915L35.2 16.9131Z" fill="#6BB229"/>
<g style="mix-blend-mode:multiply" opacity="0.36">
<path d="M30.5125 15.221C30.6625 15.1578 30.8125 15.1073 30.975 15.0694C29.5625 14.7411 28.025 14.6906 26.675 15.221C23.6125 16.4459 22.3625 20.3731 22 22.1915L26.3 20.4741C26.95 18.5547 28.225 16.1302 30.5125 15.221Z" fill="#FFC34F"/>
</g>
<path d="M28.8623 35.6266L27.5248 37.8996C25.9748 40.5388 25.7873 43.7715 27.0123 46.5748C27.5873 47.8881 28.4498 49.0499 29.5248 49.9717L31.8498 51.9669H36.2123L38.5373 49.9717C39.6248 49.0499 40.4748 47.8755 41.0498 46.5748C42.2748 43.7715 42.0873 40.5388 40.5373 37.8996L39.1998 35.6266C38.5248 34.4648 38.0998 33.1894 37.9498 31.8887H30.1123C29.9623 33.1894 29.5373 34.4648 28.8623 35.6266Z" fill="#FFC34F"/>
<g style="mix-blend-mode:multiply" opacity="0.36">
<path d="M30.6501 46.5748C29.4251 43.7715 29.6126 40.5388 31.1626 37.8996L32.5001 35.6266C33.1751 34.4648 33.6001 33.1894 33.7501 31.8887H30.1126C30.1001 32.0403 30.0751 32.2044 30.0501 32.356C30.0501 32.3812 30.0376 32.4065 30.0376 32.4191C30.0126 32.5454 29.9876 32.6843 29.9626 32.8106C29.9501 32.8484 29.9501 32.8863 29.9376 32.9116C29.9126 33.0252 29.8751 33.1515 29.8501 33.2652C29.8376 33.303 29.8251 33.3536 29.8126 33.3914C29.7876 33.5051 29.7501 33.6061 29.7126 33.7198C29.7001 33.7703 29.6876 33.8208 29.6626 33.8587L29.5501 34.1617C29.5251 34.2122 29.5126 34.2628 29.4876 34.3133C29.4501 34.4143 29.4001 34.5153 29.3626 34.6037C29.3376 34.6542 29.3251 34.7047 29.3001 34.7552L29.1501 35.0583C29.1251 35.0962 29.1126 35.1467 29.0876 35.1846C29.0126 35.3235 28.9376 35.4624 28.8501 35.6013L27.5126 37.8743C25.9626 40.5135 25.7751 43.7462 27.0001 46.5496C27.5751 47.8629 28.4376 49.0246 29.5126 49.9465L31.8376 51.9417H35.4751L33.1501 49.9465C32.0751 49.0499 31.2126 47.8881 30.6501 46.5748Z" fill="#FFC34F"/>
</g>
</g>
<defs>
<clipPath id="clip0_341_17563">
<rect width="64" height="64" fill="white"/>
</clipPath>
</defs>
</svg>
