<svg width="64" height="64" viewBox="0 0 64 64" fill="none" xmlns="http://www.w3.org/2000/svg">
<circle opacity="0.1" cx="32" cy="32" r="18" fill="#F55349"/>
<path d="M43.9401 49.49C45.9101 49.49 47.5101 47.89 47.5101 45.92C47.5101 43.95 45.9101 42.35 43.9401 42.35C41.9701 42.35 40.3701 43.95 40.3701 45.92C40.3701 47.89 41.9701 49.49 43.9401 49.49Z" fill="#F55349"/>
<g style="mix-blend-mode:multiply" opacity="0.36">
<path d="M43.9401 49.49C45.9101 49.49 47.5101 47.89 47.5101 45.92C47.5101 43.95 45.9101 42.35 43.9401 42.35C41.9701 42.35 40.3701 43.95 40.3701 45.92C40.3701 47.89 41.9701 49.49 43.9401 49.49Z" fill="#F55349"/>
</g>
<path d="M34.07 53.7C38.66 53.7 42.39 50.04 42.39 45.52C42.39 41 38.67 37.34 34.07 37.34C29.47 37.34 25.75 41 25.75 45.52C25.75 50.04 29.47 53.7 34.07 53.7Z" fill="#FFC34F"/>
<g style="mix-blend-mode:multiply" opacity="0.4">
<path d="M34.0601 50.87C37.0601 50.87 39.5001 48.48 39.5001 45.52C39.5001 42.56 37.0701 40.17 34.0601 40.17C31.0501 40.17 28.6201 42.56 28.6201 45.52C28.6201 48.48 31.0501 50.87 34.0601 50.87Z" fill="#FFC34F"/>
</g>
<path d="M34.07 47.78C35.34 47.78 36.37 46.77 36.37 45.52C36.37 44.27 35.34 43.26 34.07 43.26C32.8 43.26 31.77 44.27 31.77 45.52C31.77 46.77 32.8 47.78 34.07 47.78Z" fill="#FFC34F"/>
<path d="M34.6301 31.82L34.5301 31.92L33.7401 32.75C32.8401 33.68 31.5801 34.21 30.2901 34.21L22.1201 32.98V31.64L30.2901 32.41C31.1001 32.41 31.8801 32.08 32.4501 31.5L33.3401 30.57C33.3401 30.57 33.4301 30.49 33.4801 30.45L33.6401 30.36C33.9601 30.23 34.3401 30.29 34.6101 30.55C34.9701 30.89 34.9801 31.46 34.6301 31.82Z" fill="#F55349"/>
<g style="mix-blend-mode:multiply" opacity="0.36">
<g style="mix-blend-mode:multiply">
<path d="M34.6301 31.82L34.5301 31.92L33.7401 32.75C32.8401 33.68 31.5801 34.21 30.2901 34.21L22.1201 32.98V31.64L30.2901 32.41C31.1001 32.41 31.8801 32.08 32.4501 31.5L33.3401 30.57C33.3401 30.57 33.4301 30.49 33.4801 30.45L33.6401 30.36C33.9601 30.23 34.3401 30.29 34.6101 30.55C34.9701 30.89 34.9801 31.46 34.6301 31.82Z" fill="#F55349"/>
</g>
</g>
<path d="M49.5301 27.9C49.5301 28.4 49.1201 28.8 48.6301 28.8H41.5101C40.7201 28.8 39.9401 29 39.2501 29.37L34.5301 31.93L34.0001 32.22C33.0401 32.74 31.9701 33.01 30.8801 33.01L22.1201 32.24V31.21H30.8801C31.6701 31.21 32.4501 31.02 33.1401 30.64L33.4801 30.46L33.6401 30.37L38.3901 27.79C39.3501 27.27 40.4201 27 41.5101 27H48.6301C49.1201 27 49.5301 27.4 49.5301 27.9Z" fill="#F55349"/>
<path d="M21.1202 48.53C23.6802 48.53 25.7502 46.46 25.7502 43.9C25.7502 41.34 23.6802 39.27 21.1202 39.27C18.5602 39.27 16.4902 41.34 16.4902 43.9C16.4902 46.46 18.5602 48.53 21.1202 48.53Z" fill="#F55349"/>
<path d="M28.4404 31.2V45.97H31.1404V31.2H28.4404Z" fill="#FFC34F"/>
<path d="M23.0503 31.2V45.97H25.7503V31.2H23.0503Z" fill="#FFC34F"/>
<g style="mix-blend-mode:multiply" opacity="0.4">
<path d="M23.0503 31.2V45.97H25.7503V31.2H23.0503Z" fill="#FFC34F"/>
</g>
<g style="mix-blend-mode:multiply" opacity="0.4">
<path d="M28.4404 31.2V45.97H31.1404V31.2H28.4404Z" fill="#FFC34F"/>
</g>
<path d="M25.7505 31.2V45.97H28.4405V31.2H25.7505Z" fill="#FFC34F"/>
<path d="M45.8613 50.9H19.1313L21.2213 53.45C21.5113 53.8 21.9313 54 22.3913 54H42.6013C43.0513 54 43.4813 53.8 43.7713 53.45L45.8613 50.9Z" fill="#6BB229"/>
<g style="mix-blend-mode:multiply" opacity="0.26">
<path d="M45.8613 50.9H19.1313L21.2213 53.45C21.5113 53.8 21.9313 54 22.3913 54H42.6013C43.0513 54 43.4813 53.8 43.7713 53.45L45.8613 50.9Z" fill="#6BB229"/>
</g>
<path d="M48.7611 50.9H16.2311C14.1911 50.9 12.4711 49.28 12.0211 47.12C11.9011 46.54 12.3611 46 12.9311 46H52.0711C52.6411 46 53.1011 46.54 52.9811 47.12C52.5311 49.28 50.8111 50.9 48.7611 50.9Z" fill="#6BB229"/>
<g style="mix-blend-mode:multiply" opacity="0.26">
<path d="M25.6509 46H12.9409C12.3709 46 11.9109 46.54 12.0309 47.12C12.4809 49.28 14.2009 50.9 16.2409 50.9H29.9709C27.5809 50.9 25.6409 48.7 25.6409 46H25.6509Z" fill="#6BB229"/>
</g>
</svg>
