<svg width="78" height="78" viewBox="0 0 78 78" fill="none" xmlns="http://www.w3.org/2000/svg">
<circle opacity="0.1" cx="39" cy="39" r="21.9375" fill="#F55349"/>
<path d="M57.8025 33.7472C56.0714 35.4778 51.6219 33.869 47.8794 30.1153C44.1369 26.3737 42.5155 21.9253 44.2588 20.1825L36.5909 27.8484C34.8476 29.5912 36.469 34.0397 40.2115 37.7812C42.4424 40.0115 44.917 41.4862 46.9285 41.9372C48.0256 42.1809 48.7571 43.2169 48.7571 44.3381V45.8494C48.7571 46.7269 49.4641 47.4337 50.3419 47.4337C51.2196 47.4337 51.9266 46.7269 51.9266 45.8494V40.1456C51.9266 39.5728 52.3899 39.0975 52.975 39.0975C53.5602 39.0975 54.0234 39.5606 54.0234 40.1456V43.0706C54.0234 43.7409 54.5598 44.2772 55.2303 44.2772C55.9008 44.2772 56.4371 43.7409 56.4371 43.0706V37.05C56.4371 35.8069 56.9248 34.6247 57.8025 33.7472Z" fill="#FFC34F"/>
<path d="M19.3538 59.7187C19.0734 59.7187 18.793 59.6091 18.598 59.3897C18.1835 58.9753 18.1835 58.2806 18.598 57.8662L27.7165 48.75C28.131 48.3356 28.8259 48.3356 29.2403 48.75C29.6548 49.1644 29.6548 49.8591 29.2403 50.2734L20.1218 59.3897C19.9024 59.6091 19.622 59.7187 19.3538 59.7187V59.7187Z" fill="#FFC34F"/>
<g style="mix-blend-mode:multiply" opacity="0.36">
<path d="M19.3538 59.7187C19.0734 59.7187 18.793 59.6091 18.598 59.3897C18.1835 58.9753 18.1835 58.2806 18.598 57.8662L27.7165 48.75C28.131 48.3356 28.8259 48.3356 29.2403 48.75C29.6548 49.1644 29.6548 49.8591 29.2403 50.2734L20.1218 59.3897C19.9024 59.6091 19.622 59.7187 19.3538 59.7187V59.7187Z" fill="#FFC34F"/>
</g>
<path d="M33.5924 44.4113C30.1059 40.9256 28.5821 36.7697 30.2034 35.1366L23.0354 42.2906C21.4018 43.9238 22.9257 48.0675 26.4244 51.5653C29.9109 55.0509 34.0679 56.5744 35.7014 54.9534L42.8695 47.7994C41.2603 49.4325 37.1033 47.9091 33.5924 44.4113V44.4113Z" fill="#FFC34F"/>
<g style="mix-blend-mode:multiply" opacity="0.36">
<path d="M31.2638 41.5594C29.5084 38.8903 29.0086 36.3187 30.2033 35.1122L23.0352 42.2662C21.8405 43.4606 22.3403 46.0444 24.0958 48.7134L31.2638 41.5594V41.5594Z" fill="#FFC34F"/>
</g>
<path d="M42.8818 47.7872C44.5154 46.1541 42.9915 42.0103 39.505 38.5125C36.0063 35.0147 31.8494 33.5035 30.228 35.1366C28.5945 36.7697 30.1183 40.9135 33.6048 44.4113C37.1035 47.9091 41.2605 49.4203 42.8818 47.7872Z" fill="#F55349"/>
<path d="M37.0667 42.0225C36.7863 42.0225 36.5059 41.9128 36.3109 41.6935C35.8964 41.2791 35.8964 40.5844 36.3109 40.17L40.2484 36.2335C40.6629 35.8191 41.3578 35.8191 41.7722 36.2335C42.1867 36.6478 42.1867 37.3425 41.7722 37.7569L37.8347 41.6935C37.6153 41.9128 37.3349 42.0225 37.0667 42.0225V42.0225Z" fill="#FFC34F"/>
<g style="mix-blend-mode:multiply" opacity="0.36">
<path d="M37.0667 42.0225C36.7863 42.0225 36.5059 41.9128 36.3109 41.6935C35.8964 41.2791 35.8964 40.5844 36.3109 40.17L40.2484 36.2335C40.6629 35.8191 41.3578 35.8191 41.7722 36.2335C42.1867 36.6478 42.1867 37.3425 41.7722 37.7569L37.8347 41.6935C37.6153 41.9128 37.3349 42.0225 37.0667 42.0225V42.0225Z" fill="#FFC34F"/>
</g>
<path d="M47.8794 30.1275C44.1369 26.3859 42.5155 21.9375 44.2588 20.1947L36.5909 27.8606C34.8476 29.6034 36.469 34.0519 40.2115 37.7934C43.954 41.535 48.4157 43.1559 50.1468 41.4131L57.8025 33.7594C56.0714 35.49 51.6219 33.8813 47.8794 30.1275Z" fill="#FFC34F"/>
<g style="mix-blend-mode:multiply" opacity="0.36">
<path d="M46.0513 28.0312C43.6498 24.8503 42.8208 21.6084 44.2471 20.1947L36.5914 27.8606C35.1651 29.2866 35.9941 32.5162 38.3956 35.6972L46.0513 28.0312V28.0312Z" fill="#FFC34F"/>
</g>
<path d="M57.8029 33.7472C59.5461 32.0044 57.937 27.5559 54.1945 23.8144C50.4519 20.0728 46.0024 18.4519 44.2591 20.2069C42.5159 21.9497 44.125 26.3981 47.8675 30.1397C51.6101 33.8812 56.0596 35.49 57.8029 33.7472V33.7472Z" fill="#F55349"/>
<path d="M51.7683 27.3244C51.488 27.3244 51.2076 27.2147 51.0125 26.9953C50.598 26.5809 50.598 25.8862 51.0125 25.4719L56.5349 19.9509C56.9493 19.5365 57.6442 19.5365 58.0587 19.9509C58.4732 20.3653 58.4732 21.06 58.0587 21.4744L52.5363 26.9953C52.3169 27.2147 52.0365 27.3244 51.7683 27.3244V27.3244Z" fill="#FFC34F"/>
</svg>
