<svg width="25" height="26" viewBox="0 0 25 26" fill="none" xmlns="http://www.w3.org/2000/svg">
<g clip-path="url(#clip0_985_17384)">
<ellipse opacity="0.14" cx="12.5" cy="21.8477" rx="9.76562" ry="0.644531" fill="#F55349"/>
<path d="M9.5644 11.4469C9.29991 11.1303 8.93226 10.917 8.52608 10.8445C8.1199 10.7721 7.70118 10.8451 7.34352 11.0508C6.98586 11.2565 6.71215 11.5817 6.57049 11.9692C6.42884 12.3567 6.42831 12.7818 6.569 13.1696C6.70969 13.5575 6.9826 13.8833 7.33974 14.0899C7.69689 14.2965 8.11543 14.3706 8.52179 14.2992C8.92815 14.2277 9.29633 14.0153 9.5616 13.6993C9.82688 13.3833 9.97228 12.9839 9.97225 12.5713C9.97258 12.1603 9.82819 11.7622 9.5644 11.4469ZM8.21806 13.5459C8.0254 13.5458 7.83709 13.4886 7.67692 13.3816C7.51676 13.2745 7.39194 13.1223 7.31824 12.9443C7.24454 12.7663 7.22528 12.5705 7.26288 12.3815C7.30048 12.1925 7.39326 12.019 7.52949 11.8828C7.66572 11.7465 7.83928 11.6537 8.02823 11.6161C8.21719 11.5785 8.41305 11.5978 8.59105 11.6715C8.76906 11.7452 8.92121 11.87 9.02829 12.0302C9.13536 12.1903 9.19255 12.3787 9.19261 12.5713C9.19261 12.8298 9.08993 13.0777 8.90717 13.2604C8.72441 13.4432 8.47653 13.5459 8.21806 13.5459Z" fill="#FFC34F"/>
<g style="mix-blend-mode:multiply" opacity="0.36">
<path d="M9.97246 12.5713C9.97239 12.9847 9.8263 13.3849 9.55997 13.7011C9.29363 14.0174 8.92415 14.2294 8.51673 14.2998C8.10931 14.3702 7.69011 14.2944 7.3331 14.0859C6.9761 13.8773 6.70422 13.5494 6.56543 13.1599C6.80614 13.0641 7.04564 12.9603 7.28392 12.8485C7.32562 12.9894 7.39861 13.1189 7.49743 13.2276C7.59625 13.3362 7.71835 13.4211 7.8546 13.476C7.99086 13.5308 8.13774 13.5541 8.28426 13.5442C8.43079 13.5342 8.57318 13.4913 8.70079 13.4186C8.8284 13.3459 8.93792 13.2453 9.02118 13.1243C9.10444 13.0033 9.15927 12.8651 9.18159 12.7199C9.20391 12.5748 9.19313 12.4264 9.15005 12.286C9.10698 12.1456 9.03273 12.0168 8.93286 11.9091C9.14701 11.7636 9.3576 11.6096 9.56461 11.4469C9.82863 11.762 9.97305 12.1602 9.97246 12.5713Z" fill="#FFC34F"/>
</g>
<path d="M17.2856 10.0242C17.0211 9.70754 16.6535 9.49424 16.2473 9.42179C15.8411 9.34934 15.4224 9.42238 15.0647 9.62808C14.707 9.83377 14.4333 10.159 14.2917 10.5465C14.15 10.934 14.1495 11.359 14.2902 11.7469C14.4309 12.1348 14.7038 12.4606 15.0609 12.6672C15.4181 12.8738 15.8366 12.9479 16.243 12.8764C16.6493 12.805 17.0175 12.5926 17.2828 12.2766C17.5481 11.9606 17.6935 11.5612 17.6934 11.1486C17.6938 10.7375 17.5494 10.3395 17.2856 10.0242ZM15.9392 12.1231C15.7466 12.1231 15.5583 12.0659 15.3981 11.9588C15.2379 11.8517 15.1131 11.6996 15.0394 11.5216C14.9657 11.3436 14.9465 11.1477 14.9841 10.9588C15.0217 10.7698 15.1144 10.5963 15.2507 10.46C15.3869 10.3238 15.5605 10.231 15.7494 10.1934C15.9384 10.1558 16.1342 10.1751 16.3122 10.2488C16.4902 10.3225 16.6424 10.4473 16.7495 10.6075C16.8566 10.7676 16.9137 10.9559 16.9138 11.1486C16.9138 11.4071 16.8111 11.6549 16.6284 11.8377C16.4456 12.0205 16.1977 12.1231 15.9392 12.1231Z" fill="#FFC34F"/>
<g style="mix-blend-mode:multiply" opacity="0.36">
<path d="M17.6936 11.1486C17.6936 11.562 17.5475 11.9622 17.2812 12.2784C17.0148 12.5947 16.6453 12.8067 16.2379 12.8771C15.8305 12.9475 15.4113 12.8717 15.0543 12.6632C14.6973 12.4546 14.4254 12.1267 14.2866 11.7372C14.5273 11.6414 14.7668 11.5376 15.0051 11.4258C15.0468 11.5666 15.1198 11.6962 15.2186 11.8049C15.3174 11.9135 15.4395 11.9984 15.5758 12.0532C15.712 12.108 15.8589 12.1314 16.0055 12.1214C16.152 12.1115 16.2944 12.0686 16.422 11.9959C16.5496 11.9232 16.6591 11.8226 16.7424 11.7016C16.8256 11.5806 16.8805 11.4423 16.9028 11.2972C16.9251 11.152 16.9143 11.0037 16.8712 10.8633C16.8282 10.7229 16.7539 10.594 16.654 10.4864C16.8682 10.3409 17.0788 10.1868 17.2858 10.0242C17.5498 10.3393 17.6942 10.7374 17.6936 11.1486Z" fill="#FFC34F"/>
</g>
<path d="M12.5979 9.06419C12.512 9.00218 12.3928 9.02842 12.3403 9.11904C11.9063 9.87981 12.1042 10.86 12.8292 11.3847C13.5518 11.9117 14.5463 11.7996 15.1354 11.1533C15.2069 11.077 15.195 10.953 15.1091 10.8934L12.5979 9.06419Z" fill="#F55349"/>
<g style="mix-blend-mode:multiply" opacity="0.46">
<path d="M13.1886 10.8101C13.129 10.7672 13.1147 10.6837 13.16 10.6241L13.3794 10.3236C13.4223 10.264 13.5058 10.2497 13.5654 10.295C13.625 10.3379 13.6393 10.4214 13.594 10.481L13.3746 10.7815C13.3317 10.8411 13.2482 10.853 13.1886 10.8101Z" fill="#F55349"/>
</g>
<g style="mix-blend-mode:multiply" opacity="0.46">
<path d="M14.1112 11.3491C14.0396 11.33 13.9967 11.2561 14.0158 11.1845L14.1112 10.8244C14.1302 10.7529 14.2042 10.7099 14.2757 10.729C14.3473 10.7481 14.3902 10.822 14.3711 10.8936L14.2757 11.2537C14.2542 11.3252 14.1803 11.3682 14.1112 11.3491Z" fill="#F55349"/>
</g>
<g style="mix-blend-mode:multiply" opacity="0.46">
<path d="M12.4804 10.1614C12.5209 10.2234 12.6044 10.2425 12.6664 10.2019L12.9788 10.0016C13.0408 9.96107 13.0599 9.8776 13.0193 9.81559C12.9788 9.75358 12.8953 9.7345 12.8333 9.77505L12.5209 9.97776C12.4589 10.0159 12.4398 10.0994 12.4804 10.1614Z" fill="#F55349"/>
</g>
<path d="M11.975 14.3976C11.8064 14.3615 11.6834 14.2051 11.689 14.0328C11.6968 13.7923 11.6392 13.6111 11.5077 13.5167C11.3922 13.434 11.2307 13.4269 11.0407 13.484C10.8688 13.5356 10.675 13.4569 10.5968 13.2953C10.4869 13.0682 10.3455 12.9287 10.1794 12.9086C9.98716 12.885 9.78805 13.0241 9.60511 13.283C9.50669 13.4222 9.31389 13.4682 9.1687 13.3787C8.68661 13.0818 8.25957 12.994 8.01154 13.1876C7.76337 13.3813 7.74564 13.8174 7.91793 14.3573C7.96966 14.5194 7.87919 14.6951 7.72071 14.757C7.42489 14.8726 7.24099 15.0318 7.21738 15.2243C7.19721 15.3907 7.29795 15.5619 7.49286 15.7237C7.63089 15.8382 7.66126 16.0449 7.56971 16.1992C7.46805 16.3705 7.43607 16.5286 7.48926 16.66C7.54841 16.8104 7.71058 16.9105 7.9469 16.9612C8.11492 16.9972 8.23679 17.1532 8.231 17.3249C8.22285 17.5663 8.28043 17.7483 8.4122 17.8429C8.52101 17.9208 8.66965 17.9324 8.84529 17.8859C8.99532 17.8462 9.15684 17.9049 9.25737 18.0231C9.33938 18.1196 9.43226 18.1781 9.53547 18.1911C9.77839 18.2209 10.0329 17.9898 10.2519 17.5851C10.3268 17.4468 10.4946 17.3861 10.645 17.432C10.9097 17.5127 11.1351 17.501 11.2883 17.3802C11.4437 17.2592 11.5088 17.0423 11.4938 16.7649C11.4854 16.6086 11.5842 16.461 11.7357 16.4216C12.1812 16.3059 12.4676 16.1157 12.4975 15.8706C12.5103 15.7677 12.477 15.6631 12.4035 15.5604C12.3128 15.4335 12.2929 15.2617 12.3676 15.1247C12.4542 14.9659 12.4792 14.8194 12.4307 14.6948C12.3701 14.5468 12.2088 14.4475 11.975 14.3976Z" fill="#6BB229"/>
<path d="M14.6874 12.3096C14.5267 12.2775 14.4096 12.1287 14.4169 11.965C14.4279 11.7163 14.3707 11.5289 14.2363 11.4324C14.1174 11.3472 13.9497 11.3422 13.7524 11.4048C13.5899 11.4564 13.4053 11.3814 13.3329 11.227C13.222 10.9904 13.0779 10.8448 12.9079 10.8242C12.7124 10.8003 12.5098 10.9446 12.3243 11.212C12.2319 11.3451 12.0485 11.3886 11.911 11.3029C11.4233 10.9991 10.9904 10.9078 10.7401 11.1033C10.4895 11.2988 10.4738 11.7413 10.6514 12.2883C10.7013 12.442 10.6154 12.6093 10.4644 12.6668C10.1597 12.7828 9.9699 12.9442 9.9459 13.1399C9.92526 13.3102 10.0312 13.4855 10.2351 13.6505C10.3675 13.7578 10.3965 13.9546 10.3073 14.0998C10.1985 14.2769 10.163 14.4404 10.2178 14.5756C10.2783 14.7294 10.4465 14.8307 10.6916 14.8802C10.8516 14.9125 10.9676 15.061 10.9602 15.2241C10.9488 15.4737 11.006 15.6618 11.1407 15.7585C11.2523 15.8385 11.4059 15.8486 11.5874 15.7979C11.7294 15.7582 11.8835 15.8138 11.9768 15.9279C12.061 16.0308 12.1569 16.0933 12.264 16.1067C12.5095 16.1369 12.7668 15.9006 12.9873 15.4879C13.0578 15.3562 13.2174 15.2985 13.3598 15.3434C13.6304 15.4288 13.861 15.4187 14.0169 15.2958C14.173 15.1727 14.2386 14.9505 14.2212 14.6663C14.2121 14.5178 14.3061 14.3775 14.4502 14.3409C14.9037 14.2255 15.1958 14.0339 15.226 13.7862C15.2393 13.6795 15.2029 13.571 15.1236 13.4646C15.0351 13.3457 15.0165 13.182 15.0892 13.0528C15.1814 12.8892 15.209 12.7383 15.1592 12.6105C15.0989 12.4588 14.9314 12.3582 14.6874 12.3096Z" fill="#6BB229"/>
<g style="mix-blend-mode:multiply" opacity="0.46">
<path d="M14.7036 12.3129C14.5349 12.2772 14.412 12.1207 14.4175 11.9484C14.4253 11.708 14.3677 11.5267 14.2363 11.4324C14.1208 11.3496 13.9593 11.3425 13.7692 11.3996C13.5973 11.4513 13.4035 11.3725 13.3253 11.211C13.2154 10.9838 13.0741 10.8444 12.9079 10.8242C12.7157 10.8007 12.5166 10.9398 12.3336 11.1986C12.2352 11.3379 12.0424 11.3838 11.8972 11.2944C11.4151 10.9974 10.9881 10.9097 10.7401 11.1033C10.4919 11.297 10.4742 11.7331 10.6464 12.2729C10.6982 12.435 10.6077 12.6107 10.4492 12.6727C10.1534 12.7882 9.9695 12.9475 9.9459 13.1399C9.92572 13.3064 10.0265 13.4776 10.2214 13.6393C10.3594 13.7539 10.3898 13.9606 10.2982 14.1148C10.1966 14.2861 10.1646 14.4442 10.2178 14.5756C10.2769 14.726 10.4391 14.8262 10.6754 14.8768C10.8434 14.9128 10.9653 15.0688 10.9595 15.2406C10.9514 15.4819 11.0089 15.6639 11.1407 15.7585C11.2495 15.8365 11.3982 15.8481 11.5738 15.8016C11.7238 15.7619 11.8854 15.8205 11.9859 15.9388C12.0679 16.0352 12.1608 16.0938 12.264 16.1067C12.5069 16.1366 12.7615 15.9054 12.9805 15.5008C13.0553 15.3625 13.2232 15.3018 13.3735 15.3477C13.6382 15.4284 13.8636 15.4166 14.0169 15.2958C14.1704 15.1748 14.2364 14.958 14.222 14.6806C14.2139 14.5242 14.3127 14.3767 14.4642 14.3373C14.9097 14.2216 15.1961 14.0314 15.226 13.7862C15.2388 13.6834 15.2055 13.5788 15.1321 13.4761C15.0413 13.3492 15.0214 13.1773 15.0961 13.0404C15.1827 12.8816 15.2077 12.7351 15.1592 12.6105C15.1002 12.4622 14.9388 12.3627 14.7036 12.3129Z" fill="#6BB229"/>
</g>
<path d="M17.2685 16.2346C17.2841 16.063 17.4239 15.922 17.5956 15.9067C17.8351 15.8853 18.0078 15.8064 18.0854 15.6631C18.154 15.5383 18.142 15.3776 18.062 15.196C17.9895 15.0314 18.044 14.829 18.1951 14.7315C18.4064 14.595 18.5266 14.438 18.5266 14.2704C18.5266 14.076 18.3632 13.8954 18.0829 13.7445C17.9332 13.6639 17.8647 13.4787 17.9356 13.3242C18.1713 12.8098 18.2071 12.3742 17.9852 12.1502C17.7632 11.9282 17.3276 11.9624 16.8115 12.1994C16.6569 12.2704 16.4715 12.202 16.3908 12.0522C16.2399 11.7721 16.0594 11.6089 15.8651 11.6089C15.697 11.6089 15.5397 11.7296 15.403 11.9419C15.3059 12.0926 15.1045 12.1475 14.9404 12.0755C14.7583 11.9956 14.5974 11.9829 14.4723 12.0501C14.3304 12.1278 14.2507 12.3013 14.229 12.5418C14.2136 12.7128 14.0738 12.8526 13.9027 12.8676C13.6623 12.8887 13.4888 12.9677 13.411 13.1113C13.3465 13.2291 13.3529 13.3775 13.4192 13.5446C13.4768 13.6898 13.4372 13.8584 13.3318 13.9736C13.2471 14.0663 13.2012 14.1655 13.2012 14.268C13.2012 14.513 13.4623 14.738 13.8901 14.9069C14.0361 14.9646 14.1164 15.1235 14.0888 15.2781C14.0403 15.5503 14.0783 15.7723 14.2171 15.9112C14.356 16.05 14.578 16.088 14.8502 16.0395C15.0048 16.0119 15.1637 16.0922 15.2212 16.2382C15.3897 16.666 15.6133 16.9271 15.8603 16.9271C15.9631 16.9271 16.0626 16.8809 16.1555 16.7957C16.2703 16.6904 16.4382 16.6505 16.5829 16.7081C16.7515 16.7753 16.9002 16.7821 17.0169 16.7173C17.1651 16.6432 17.2467 16.4728 17.2685 16.2346Z" fill="#6BB229"/>
<path d="M15.1 13.6867C14.8116 13.3414 14.4107 13.1087 13.9677 13.0297C13.5247 12.9507 13.0681 13.0304 12.6781 13.2547C12.288 13.479 11.9895 13.8336 11.835 14.2562C11.6806 14.6789 11.68 15.1424 11.8334 15.5654C11.9868 15.9884 12.2844 16.3437 12.6739 16.569C13.0634 16.7943 13.5199 16.8751 13.963 16.7972C14.4062 16.7193 14.8077 16.4877 15.097 16.143C15.3863 15.7984 15.5449 15.3628 15.5448 14.9129C15.5452 14.4646 15.3877 14.0305 15.1 13.6867ZM13.6318 15.9757C13.4217 15.9756 13.2163 15.9133 13.0416 15.7965C12.867 15.6797 12.7309 15.5138 12.6505 15.3197C12.5701 15.1255 12.5491 14.9119 12.5901 14.7059C12.6311 14.4998 12.7323 14.3105 12.8809 14.162C13.0294 14.0134 13.2187 13.9122 13.4248 13.8712C13.6308 13.8302 13.8444 13.8512 14.0386 13.9316C14.2327 14.012 14.3986 14.1481 14.5154 14.3228C14.6322 14.4974 14.6945 14.7028 14.6946 14.9129C14.6946 15.1948 14.5826 15.4651 14.3833 15.6644C14.184 15.8637 13.9137 15.9757 13.6318 15.9757Z" fill="#FFC34F"/>
<g style="mix-blend-mode:multiply" opacity="0.36">
<path d="M15.5446 14.9128C15.5446 15.3637 15.3853 15.8001 15.0948 16.145C14.8043 16.4899 14.4014 16.7211 13.9571 16.7979C13.5128 16.8747 13.0556 16.792 12.6663 16.5646C12.277 16.3372 11.9805 15.9795 11.8291 15.5548C12.0916 15.4503 12.3528 15.3371 12.6126 15.2152C12.6581 15.3688 12.7377 15.5101 12.8455 15.6286C12.9533 15.7471 13.0864 15.8396 13.235 15.8994C13.3836 15.9592 13.5438 15.9846 13.7036 15.9738C13.8634 15.963 14.0187 15.9162 14.1578 15.8369C14.297 15.7576 14.4164 15.6479 14.5072 15.5159C14.598 15.384 14.6578 15.2332 14.6822 15.0749C14.7065 14.9166 14.6947 14.7549 14.6478 14.6017C14.6008 14.4486 14.5198 14.3081 14.4109 14.1907C14.6445 14.0321 14.8741 13.864 15.0999 13.6866C15.3878 14.0303 15.5453 14.4645 15.5446 14.9128Z" fill="#FFC34F"/>
</g>
<path d="M8.66053 9.35281C8.56752 9.4005 8.53652 9.51975 8.59375 9.6056C9.07549 10.3354 10.039 10.6049 10.8355 10.197C11.6321 9.79162 11.9826 8.85437 11.6774 8.03636C11.6416 7.93858 11.5271 7.89327 11.4317 7.94097L8.66053 9.35281Z" fill="#F55349"/>
<g style="mix-blend-mode:multiply" opacity="0.46">
<path d="M10.5194 9.57274C10.4526 9.60612 10.3739 9.57989 10.3405 9.51311L10.1712 9.18162C10.1378 9.11484 10.1641 9.03614 10.2308 9.00275C10.2976 8.96937 10.3763 8.9956 10.4097 9.06238L10.579 9.39387C10.6124 9.45826 10.5862 9.53935 10.5194 9.57274Z" fill="#F55349"/>
</g>
<g style="mix-blend-mode:multiply" opacity="0.46">
<path d="M11.4161 8.99561C11.366 9.05046 11.2825 9.05523 11.2277 9.00515L10.951 8.75712C10.8962 8.70704 10.8914 8.62357 10.9415 8.56872C10.9916 8.51386 11.0751 8.5091 11.1299 8.55918L11.4065 8.8072C11.4614 8.8549 11.4662 8.94075 11.4161 8.99561Z" fill="#F55349"/>
</g>
<g style="mix-blend-mode:multiply" opacity="0.46">
<path d="M9.62027 9.90902C9.6942 9.90186 9.74666 9.83509 9.73951 9.76115L9.70135 9.3915C9.6942 9.31757 9.62742 9.2651 9.55349 9.27226C9.47956 9.27941 9.42709 9.34619 9.43425 9.42012L9.4724 9.78977C9.48194 9.8637 9.54633 9.91617 9.62027 9.90902Z" fill="#F55349"/>
</g>
<path d="M7.0623 9.60318C6.96691 9.83928 6.69503 9.96091 6.60441 9.99668C6.58533 10.0038 6.56625 9.9943 6.5591 9.9776C6.51856 9.88698 6.40885 9.61033 6.50425 9.37662C6.59964 9.1429 6.87151 9.01889 6.96214 8.98312C6.98122 8.97596 7.0003 8.9855 7.00745 9.0022C7.04799 9.09044 7.1577 9.36708 7.0623 9.60318Z" fill="#6BB229"/>
<path d="M13.4463 8.60397C13.5107 8.84961 13.3676 9.10956 13.3152 9.19303C13.3056 9.20973 13.2842 9.2145 13.2675 9.20496C13.1792 9.15726 12.9264 9.00224 12.862 8.7566C12.7977 8.51096 12.9407 8.25101 12.9932 8.16754C13.0028 8.15085 13.0242 8.14608 13.0409 8.15562C13.1292 8.20332 13.3819 8.35833 13.4463 8.60397Z" fill="#6BB229"/>
<path d="M8.09014 12.3839C8.13545 12.558 8.03528 12.7417 7.99713 12.8013C7.98997 12.8132 7.97566 12.8156 7.96374 12.8108C7.90173 12.7774 7.72287 12.6677 7.67755 12.4936C7.63224 12.3196 7.73241 12.1359 7.77056 12.0763C7.77772 12.0644 7.79203 12.062 7.80395 12.0668C7.86596 12.1001 8.04244 12.2098 8.09014 12.3839Z" fill="#6BB229"/>
<path d="M9.07522 10.0421C9.03944 10.209 8.87489 10.3211 8.81765 10.3545C8.80573 10.3617 8.79142 10.3569 8.78426 10.3474C8.74611 10.2925 8.64356 10.1232 8.67933 9.95624C8.7151 9.7893 8.87966 9.67721 8.93689 9.64383C8.94882 9.63667 8.96313 9.64144 8.97028 9.65098C9.00844 9.70583 9.11099 9.87516 9.07522 10.0421Z" fill="#6BB229"/>
<g style="mix-blend-mode:multiply" opacity="0.36">
<path d="M9.07522 10.0421C9.03944 10.209 8.87489 10.3211 8.81765 10.3545C8.80573 10.3617 8.79142 10.3569 8.78426 10.3474C8.74611 10.2925 8.64356 10.1232 8.67933 9.95624C8.7151 9.7893 8.87966 9.67721 8.93689 9.64383C8.94882 9.63667 8.96313 9.64144 8.97028 9.65098C9.00844 9.70583 9.11099 9.87516 9.07522 10.0421Z" fill="#6BB229"/>
</g>
<path d="M16.38 10.8958C16.3108 11.0532 16.1272 11.1272 16.0628 11.151C16.0509 11.1558 16.0366 11.1486 16.0318 11.1367C16.0056 11.0747 15.9388 10.8863 16.008 10.7313C16.0771 10.5763 16.2608 10.5 16.3251 10.4761C16.3371 10.4713 16.3514 10.4785 16.3561 10.4904C16.3824 10.5524 16.4492 10.7408 16.38 10.8958Z" fill="#6BB229"/>
<g style="mix-blend-mode:multiply" opacity="0.36">
<path d="M16.38 10.8958C16.3108 11.0532 16.1272 11.1272 16.0628 11.151C16.0509 11.1558 16.0366 11.1486 16.0318 11.1367C16.0056 11.0747 15.9388 10.8863 16.008 10.7313C16.0771 10.5763 16.2608 10.5 16.3251 10.4761C16.3371 10.4713 16.3514 10.4785 16.3561 10.4904C16.3824 10.5524 16.4492 10.7408 16.38 10.8958Z" fill="#6BB229"/>
</g>
<path d="M18.5667 9.96331C18.3831 10.2757 17.9777 10.395 17.8394 10.426C17.8131 10.4331 17.7869 10.4164 17.7773 10.3902C17.7368 10.2543 17.639 9.84168 17.8227 9.52927C18.0063 9.21685 18.4117 9.09761 18.55 9.0666C18.5763 9.05945 18.6025 9.07614 18.612 9.10238C18.6526 9.23831 18.7504 9.65089 18.5667 9.96331Z" fill="#6BB229"/>
<path d="M12.496 20.7691C9.39056 20.7691 6.84759 18.3435 6.64056 15.3476C6.62493 15.1328 6.81243 14.9531 7.03118 14.9531H17.9687C18.1913 14.9531 18.3749 15.1328 18.3593 15.3476C18.1523 18.3435 15.6093 20.773 12.4999 20.773L12.496 20.7691Z" fill="#F55349"/>
<g style="mix-blend-mode:multiply" opacity="0.36">
<path d="M10.246 15.0195V14.9531H7.03118C6.81243 14.9531 6.62493 15.1328 6.64056 15.3476C6.84759 18.3435 9.39056 20.773 12.496 20.773C13.1288 20.773 13.7343 20.6714 14.3046 20.4918C11.9531 19.7457 10.246 17.5779 10.246 15.0195Z" fill="#F55349"/>
</g>
<path d="M14.8437 20.2926H10.1562V21.2144C10.1562 21.4253 10.332 21.5933 10.5469 21.5933H14.457C14.6719 21.5933 14.8477 21.4214 14.8477 21.2144V20.2926H14.8437Z" fill="#6BB229"/>
<g style="mix-blend-mode:multiply" opacity="0.26">
<path d="M11.5508 20.2926H10.1562V21.2144C10.1562 21.4253 10.332 21.5933 10.5469 21.5933H12.2148L11.5508 20.2926Z" fill="#6BB229"/>
</g>
<path d="M17.8828 17.324C18.0469 16.9529 18.1758 16.5623 18.2578 16.1561H6.74609C6.82812 16.5623 6.95312 16.9529 7.12109 17.324H17.8828Z" fill="#FFC34F"/>
<g style="mix-blend-mode:multiply" opacity="0.4">
<path d="M10.7383 17.324C10.5742 16.9529 10.4453 16.5623 10.3633 16.1561H6.74609C6.82031 16.5116 6.92578 16.8553 7.0625 17.1834C7.08203 17.2303 7.10156 17.2771 7.12109 17.3201H10.7383V17.324Z" fill="#FFC34F"/>
</g>
</g>
<defs>
<clipPath id="clip0_985_17384">
<rect width="25" height="25" fill="white" transform="translate(0 0.5)"/>
</clipPath>
</defs>
</svg>
