<svg width="33" height="30" viewBox="0 0 33 30" fill="none" xmlns="http://www.w3.org/2000/svg">
<path d="M24.2692 1.66669C23.2567 1.61259 22.2438 1.76433 21.2917 2.11275C20.3395 2.46117 19.4679 2.99903 18.7295 3.69383C17.991 4.38863 17.4012 5.22593 16.9955 6.15513C16.5898 7.08434 16.3768 8.08615 16.3692 9.10002C16.3616 8.08615 16.1486 7.08434 15.7429 6.15513C15.3372 5.22593 14.7473 4.38863 14.0089 3.69383C13.2705 2.99903 12.3989 2.46117 11.4467 2.11275C10.4946 1.76433 9.48165 1.61259 8.46919 1.66669C6.48769 1.84824 4.65001 2.77864 3.33076 4.26822C2.0115 5.75781 1.30998 7.69444 1.36919 9.68336C1.36919 22.6 11.9525 27.1334 15.3359 28.3334C16.0073 28.5523 16.731 28.5523 17.4025 28.3334C20.7359 27.2167 31.3192 22.6834 31.3692 9.76669C31.4501 7.76366 30.7584 5.80608 29.437 4.29857C28.1156 2.79106 26.2656 1.84885 24.2692 1.66669Z" stroke="#FFA000" stroke-width="2" stroke-linecap="round" stroke-linejoin="round"/>
</svg>
