<svg width="40" height="40" viewBox="0 0 40 40" fill="none" xmlns="http://www.w3.org/2000/svg">
<path d="M31.6663 15V24.9167C31.6663 26.1146 31.1904 27.2634 30.3434 28.1104C29.4963 28.9575 28.3475 29.4333 27.1496 29.4333H18.1163C16.9184 29.4333 15.7696 28.9575 14.9225 28.1104C14.0755 27.2634 13.5996 26.1146 13.5996 24.9167V9.91666C13.5996 8.71877 14.0755 7.56993 14.9225 6.72289C15.7696 5.87586 16.9184 5.39999 18.1163 5.39999H22.0163C22.4173 5.40305 22.8009 5.56485 23.0829 5.84999L31.2329 14C31.4924 14.2707 31.6462 14.6255 31.6663 15Z" stroke="#00153F" stroke-width="2" stroke-miterlimit="10" stroke-linecap="round"/>
<path d="M22.633 6.05001V12.85C22.633 13.2478 22.791 13.6294 23.0723 13.9107C23.3536 14.192 23.7351 14.35 24.133 14.35H30.933C30.9936 14.3519 31.0534 14.3353 31.1045 14.3025C31.1556 14.2697 31.1955 14.2222 31.2189 14.1662C31.2424 14.1102 31.2484 14.0484 31.236 13.989C31.2236 13.9296 31.1935 13.8753 31.1496 13.8333L23.1496 5.83335C23.1077 5.78948 23.0534 5.75937 22.994 5.74699C22.9346 5.73462 22.8728 5.74056 22.8168 5.76403C22.7608 5.78751 22.7133 5.82741 22.6805 5.87847C22.6476 5.92953 22.6311 5.98934 22.633 6.05001Z" stroke="#00153F" stroke-width="2" stroke-linecap="round" stroke-linejoin="round"/>
<path d="M26.4002 29.4167V30.1667C26.4002 30.7598 26.2833 31.3471 26.0564 31.8951C25.8294 32.4431 25.4967 32.941 25.0773 33.3604C24.6579 33.7799 24.1599 34.1126 23.612 34.3395C23.064 34.5665 22.4766 34.6833 21.8835 34.6833H12.8502C11.6523 34.6833 10.5034 34.2075 9.6564 33.3604C8.80936 32.5134 8.3335 31.3646 8.3335 30.1667V15.1667C8.32466 14.568 8.43496 13.9734 8.65799 13.4177C8.88101 12.862 9.2123 12.3562 9.6326 11.9297C10.0529 11.5032 10.5538 11.1646 11.1062 10.9334C11.6586 10.7023 12.2514 10.5833 12.8502 10.5833H13.6002" stroke="#00153F" stroke-width="2" stroke-miterlimit="10" stroke-linecap="round"/>
</svg>
