<svg width="40" height="40" viewBox="0 0 40 40" fill="none" xmlns="http://www.w3.org/2000/svg">
<rect width="40" height="40" rx="20" fill="#DB4437"/>
<path fill-rule="evenodd" clip-rule="evenodd" d="M32.18 20.7765C32.18 19.9138 32.1026 19.0842 31.9588 18.2878H20.5V22.9941H27.0479C26.7658 24.515 25.9086 25.8035 24.6201 26.6663V29.719H28.5521C30.8527 27.6009 32.18 24.4818 32.18 20.7765Z" fill="white"/>
<path fill-rule="evenodd" clip-rule="evenodd" d="M20.4995 32.6666C23.7845 32.6666 26.5386 31.5772 28.5517 29.719L24.6196 26.6663C23.5301 27.3963 22.1365 27.8276 20.4995 27.8276C17.3307 27.8276 14.6485 25.6874 13.6917 22.8116H9.62695V25.9639C11.6289 29.9402 15.7435 32.6666 20.4995 32.6666Z" fill="white"/>
<path fill-rule="evenodd" clip-rule="evenodd" d="M13.6919 22.8117C13.4485 22.0817 13.3103 21.3019 13.3103 20.5C13.3103 19.6981 13.4485 18.9183 13.6919 18.1883V15.0361H9.6271C8.80308 16.6786 8.33301 18.5368 8.33301 20.5C8.33301 22.4633 8.80308 24.3215 9.6271 25.964L13.6919 22.8117Z" fill="white"/>
<path fill-rule="evenodd" clip-rule="evenodd" d="M20.4995 13.1723C22.2858 13.1723 23.8896 13.7862 25.1505 14.9918L28.6401 11.5022C26.5331 9.53892 23.779 8.33331 20.4995 8.33331C15.7435 8.33331 11.6289 11.0598 9.62695 15.036L13.6917 18.1883C14.6485 15.3126 17.3307 13.1723 20.4995 13.1723Z" fill="white"/>
</svg>
