<svg width="41" height="40" viewBox="0 0 41 40" fill="none" xmlns="http://www.w3.org/2000/svg">
<path d="M17.1667 33.1667H13C11.6739 33.1667 10.4021 32.6399 9.46447 31.7022C8.52678 30.7645 8 29.4927 8 28.1667V14.8333L18 8.16666" stroke="#00153F" stroke-width="2" stroke-linejoin="round"/>
<path d="M23 8.16666L33 14.8333V28.1667C33 29.4927 32.4732 30.7645 31.5355 31.7022C30.5979 32.6399 29.3261 33.1667 28 33.1667H23.8333" stroke="#00153F" stroke-width="2" stroke-linejoin="round"/>
<path d="M35.5 16.5L33 14.8333L23 8.16668L21.4167 7.11668C21.1445 6.93746 20.8258 6.84195 20.5 6.84195C20.1742 6.84195 19.8555 6.93746 19.5833 7.11668L18 8.16668L8 14.8333L5.5 16.5" stroke="#00153F" stroke-width="2" stroke-linecap="round" stroke-linejoin="round"/>
<path d="M23.8337 33.1667V24.8333C23.8337 24.3913 23.6581 23.9674 23.3455 23.6548C23.0329 23.3423 22.609 23.1667 22.167 23.1667H18.8337C18.3916 23.1667 17.9677 23.3423 17.6551 23.6548C17.3426 23.9674 17.167 24.3913 17.167 24.8333V33.1667" stroke="#00153F" stroke-width="2" stroke-linecap="round" stroke-linejoin="round"/>
</svg>
